<mxfile host="65bd71144e" modified="2024-02-28T03:49:25.871Z" agent="Mozilla/5.0 (Macintosh; Intel Mac OS X 10_15_7) AppleWebKit/537.36 (KHTML, like Gecko) Code/1.86.2 Chrome/118.0.5993.159 Electron/27.2.3 Safari/537.36" etag="dYvlwCLOMGCToR3xtMT4" version="23.1.3" type="embed">
    <diagram id="1t4u5AQiOqFHH99taBFf" name="Page-1">
        <mxGraphModel dx="1390" dy="307" grid="1" gridSize="10" guides="1" tooltips="1" connect="1" arrows="1" fold="1" page="1" pageScale="1" pageWidth="850" pageHeight="1100" math="0" shadow="0">
            <root>
                <mxCell id="0"/>
                <mxCell id="1" parent="0"/>
                <mxCell id="194" value="&lt;b&gt;Fig.3 データコラボレーション&lt;/b&gt;" style="rounded=0;whiteSpace=wrap;html=1;labelBackgroundColor=none;fillColor=none;strokeColor=default;movable=1;resizable=1;rotatable=1;deletable=1;editable=1;connectable=1;labelPosition=center;verticalLabelPosition=bottom;align=center;verticalAlign=top;" parent="1" vertex="1">
                    <mxGeometry x="140" y="230" width="520" height="130" as="geometry"/>
                </mxCell>
                <mxCell id="241" value="" style="rounded=1;whiteSpace=wrap;html=1;fillColor=none;strokeColor=#ff3621;strokeWidth=1;" vertex="1" parent="1">
                    <mxGeometry x="313.20000000000005" y="274" width="186.8" height="70" as="geometry"/>
                </mxCell>
                <mxCell id="226" style="edgeStyle=none;html=1;" parent="1" edge="1">
                    <mxGeometry relative="1" as="geometry">
                        <mxPoint x="790" y="250" as="targetPoint"/>
                    </mxGeometry>
                </mxCell>
                <mxCell id="230" value="&lt;i style=&quot;font-size: 10px;&quot;&gt;&lt;u style=&quot;font-size: 10px;&quot;&gt;Group company&lt;br&gt;Data Platform&lt;br&gt;&lt;/u&gt;&lt;/i&gt;" style="text;html=1;strokeColor=none;fillColor=none;align=center;verticalAlign=middle;whiteSpace=wrap;rounded=0;fontSize=10;" parent="1" vertex="1">
                    <mxGeometry x="138.65384615384616" y="241" width="115" height="30" as="geometry"/>
                </mxCell>
                <mxCell id="248" style="edgeStyle=none;html=1;endArrow=oval;endFill=1;" edge="1" parent="1">
                    <mxGeometry relative="1" as="geometry">
                        <mxPoint x="310" y="308.8513482608786" as="sourcePoint"/>
                        <mxPoint x="235.00384615384618" y="308.75" as="targetPoint"/>
                    </mxGeometry>
                </mxCell>
                <mxCell id="243" value="&lt;i style=&quot;font-size: 10px;&quot;&gt;&lt;u style=&quot;font-size: 10px;&quot;&gt;Our Data Platform&lt;br&gt;&lt;/u&gt;&lt;/i&gt;" style="text;html=1;strokeColor=none;fillColor=none;align=center;verticalAlign=middle;whiteSpace=wrap;rounded=0;fontSize=10;" vertex="1" parent="1">
                    <mxGeometry x="349.1" y="241" width="115" height="30" as="geometry"/>
                </mxCell>
                <mxCell id="245" value="" style="image;aspect=fixed;html=1;points=[];align=center;fontSize=12;image=img/lib/azure2/analytics/Azure_Databricks.svg;imageBackground=default;" vertex="1" parent="1">
                    <mxGeometry x="326.5" y="258.25" width="27.71" height="30" as="geometry"/>
                </mxCell>
                <mxCell id="240" value="" style="rounded=1;whiteSpace=wrap;html=1;fillColor=#FFCCCC;strokeColor=none;" vertex="1" parent="1">
                    <mxGeometry x="161.15384615384616" y="274" width="70" height="70" as="geometry"/>
                </mxCell>
                <mxCell id="239" value="&lt;font style=&quot;font-size: 10px;&quot;&gt;BigQuery&lt;/font&gt;" style="editableCssRules=.*;html=1;shape=image;verticalLabelPosition=bottom;labelBackgroundColor=none;verticalAlign=top;aspect=fixed;imageAspect=0;image=data:image/svg+xml,PHN2ZyB4bWxucz0iaHR0cDovL3d3dy53My5vcmcvMjAwMC9zdmciIHhtbG5zOnY9Imh0dHBzOi8vdmVjdGEuaW8vbmFubyIgd2lkdGg9IjIwLjAwMTA0NTIyNzA1MDc4IiBoZWlnaHQ9IjIwLjAwMTA0NTIyNzA1MDc4IiBmaWxsLXJ1bGU9ImV2ZW5vZGQiIHZpZXdCb3g9IjAgMCAyMC4wMDEwNDUyMjcwNTA3OCAyMC4wMDEwNDUyMjcwNTA3OCI+JiN4YTsJPHN0eWxlIHR5cGU9InRleHQvY3NzIj4mI3hhOwkuc3Qwe2ZpbGw6I2FlY2JmYTt9JiN4YTsJLnN0MXtmaWxsOiM2NjlkZjY7fSYjeGE7CS5zdDJ7ZmlsbDojNDI4NWY0O30mI3hhOwk8L3N0eWxlPiYjeGE7CTxwYXRoIGNsYXNzPSJzdDAiIGQ9Ik00LjczIDguODN2Mi42M2E0LjkxIDQuOTEgMCAwIDAgMS43MSAxLjc0VjguODN6Ii8+JiN4YTsJPHBhdGggY2xhc3M9InN0MSIgZD0iTTcuODkgNi40MXY3LjUzQTcuNjIgNy42MiAwIDAgMCA5IDE0YTggOCAwIDAgMCAxIDBWNi40MXoiLz4mI3hhOwk8cGF0aCBjbGFzcz0ic3QwIiBkPSJNMTEuNjQgOS44NnYzLjI5YTUgNSAwIDAgMCAxLjctMS44MlY5Ljg2eiIvPiYjeGE7CTxwYXRoIGNsYXNzPSJzdDIiIGQ9Ik0xNS43NCAxNC4zMmwtMS40MiAxLjQyYS40Mi40MiAwIDAgMCAwIC42bDMuNTQgMy41NGEuNDIuNDIgMCAwIDAgLjU5IDBsMS40My0xLjQzYS40Mi40MiAwIDAgMCAwLS41OWwtMy41NC0zLjU0YS40Mi40MiAwIDAgMC0uNiAwIi8+JiN4YTsJPHBhdGggY2xhc3M9InN0MSIgZD0iTTkgMGE5IDkgMCAxIDAgMCAxOEE5IDkgMCAxIDAgOSAwbTAgMTUuNjlhNi42OCA2LjY4IDAgMCAxIC4wMDctMTMuMzYgNi42OCA2LjY4IDAgMCAxIDQuNzI3IDExLjQwM0E2LjY4IDYuNjggMCAwIDEgOSAxNS42OSIvPiYjeGE7PC9zdmc+;" vertex="1" parent="1">
                    <mxGeometry x="184.6153846153846" y="291.5" width="23.076923076923077" height="23.076923076923077" as="geometry"/>
                </mxCell>
                <mxCell id="255" value="&lt;font style=&quot;font-size: 10px;&quot;&gt;&lt;b&gt;Lakehouse&lt;br&gt;Federation&lt;/b&gt;&lt;/font&gt;" style="text;html=1;align=center;verticalAlign=middle;whiteSpace=wrap;rounded=0;" vertex="1" parent="1">
                    <mxGeometry x="238" y="312" width="60" height="30" as="geometry"/>
                </mxCell>
                <mxCell id="251" value="" style="shape=image;verticalLabelPosition=bottom;labelBackgroundColor=default;verticalAlign=top;aspect=fixed;imageAspect=0;image=data:image/png,iVBORw0KGgoAAAANSUhEUgAAAKAAAACgCAYAAACLz2ctAAABdWlDQ1BrQ0dDb2xvclNwYWNlRGlzcGxheVAzAAAokXWQvUvDUBTFT6tS0DqIDh0cMolD1NIKdnFoKxRFMFQFq1OafgltfCQpUnETVyn4H1jBWXCwiFRwcXAQRAcR3Zw6KbhoeN6XVNoi3sfl/Ticc7lcwBtQGSv2AijplpFMxKS11Lrke4OHnlOqZrKooiwK/v276/PR9d5PiFlNu3YQ2U9cl84ul3aeAlN//V3Vn8maGv3f1EGNGRbgkYmVbYsJ3iUeMWgp4qrgvMvHgtMunzuelWSc+JZY0gpqhrhJLKc79HwHl4plrbWD2N6f1VeXxRzqUcxhEyYYilBRgQQF4X/8044/ji1yV2BQLo8CLMpESRETssTz0KFhEjJxCEHqkLhz634PrfvJbW3vFZhtcM4v2tpCAzidoZPV29p4BBgaAG7qTDVUR+qh9uZywPsJMJgChu8os2HmwiF3e38M6Hvh/GMM8B0CdpXzryPO7RqFn4Er/QcXKWq8UwZBywAAAHhlWElmTU0AKgAAAAgABQESAAMAAAABAAEAAAEaAAUAAAABAAAASgEbAAUAAAABAAAAUgEoAAMAAAABAAIAAIdpAAQAAAABAAAAWgAAAAAAAACQAAAAAQAAAJAAAAABAAKgAgAEAAAAAQAAAKCgAwAEAAAAAQAAAKAAAAAAAgfBwQAAAAlwSFlzAAAWJQAAFiUBSVIk8AAAAp5pVFh0WE1MOmNvbS5hZG9iZS54bXAAAAAAADx4OnhtcG1ldGEgeG1sbnM6eD0iYWRvYmU6bnM6bWV0YS8iIHg6eG1wdGs9IlhNUCBDb3JlIDYuMC4wIj4KICAgPHJkZjpSREYgeG1sbnM6cmRmPSJodHRwOi8vd3d3LnczLm9yZy8xOTk5LzAyLzIyLXJkZi1zeW50YXgtbnMjIj4KICAgICAgPHJkZjpEZXNjcmlwdGlvbiByZGY6YWJvdXQ9IiIKICAgICAgICAgICAgeG1sbnM6dGlmZj0iaHR0cDovL25zLmFkb2JlLmNvbS90aWZmLzEuMC8iCiAgICAgICAgICAgIHhtbG5zOmV4aWY9Imh0dHA6Ly9ucy5hZG9iZS5jb20vZXhpZi8xLjAvIj4KICAgICAgICAgPHRpZmY6WFJlc29sdXRpb24+MTQ0PC90aWZmOlhSZXNvbHV0aW9uPgogICAgICAgICA8dGlmZjpZUmVzb2x1dGlvbj4xNDQ8L3RpZmY6WVJlc29sdXRpb24+CiAgICAgICAgIDx0aWZmOk9yaWVudGF0aW9uPjE8L3RpZmY6T3JpZW50YXRpb24+CiAgICAgICAgIDx0aWZmOlJlc29sdXRpb25Vbml0PjI8L3RpZmY6UmVzb2x1dGlvblVuaXQ+CiAgICAgICAgIDxleGlmOlBpeGVsWURpbWVuc2lvbj4xNjA8L2V4aWY6UGl4ZWxZRGltZW5zaW9uPgogICAgICAgICA8ZXhpZjpQaXhlbFhEaW1lbnNpb24+MTYwPC9leGlmOlBpeGVsWERpbWVuc2lvbj4KICAgICAgPC9yZGY6RGVzY3JpcHRpb24+CiAgIDwvcmRmOlJERj4KPC94OnhtcG1ldGE+Cp1x3U4AADe/SURBVHgB7X0JgBxVtfatql5m32cyWSZ7AllYDEEgEGQRooIE488qsskaREAfi7j8g4qAgCgI/oDwROGBID5cERUQCCCQEGSPgeyZJLMmM5mll6r6v+9UV0/PPj3TPdM90zfp6eqqu5771Tn3nnvuuZrKhC4UaP7m2aXhdnNf0zanaXZwmlL6VN3WJ9lWqAQRi5XSipVt5ylb+Wxle3HPwCekaXpQaVpQKbsZz5uU19OItHVKs7fatr4Vz7aovNx1pVX6R9rF94W6FDqOf2jjuO2q7qsnTdJN43ArHDhUM7z7gxYLla5VRmliR6+GftGFwvhhWWFl2RtszXxL6cZqzfCvsXPy3yj/0YMtQy8kfVN2IU/6NmNwNW+qvrIovLfhM1ow+DkV6lgKTjVd2RaYFpCmgZFpIAc/yQwszyKy8S3loVyPYSrd+6aWnfWCVlD2XGu29c+qr9/RnsxqpEreSab26Dez4bzPzreyvCfotnGirdlLUCPP6NdqgBrYVrsWCj6veX1/Cvlzfzfhp4/uGiBF2j4ekwBsuHzFFDtknqV0dY6ytX3B4tBB6dTUSH3JmW1l4vOi7vM8pnL135Tc8sSetEVbLxVPp17ppfqdt2qqL8rxNe1eoYLBcyDijkHP6SMiUjurkPgr4lBAiAsd17rerrLzfmfnFjxQ/r17nk98gSOfY9oDsOG846uUP+sKW9MvBPkKRp6Eo1CiJePI921DvzNUOeHXk6rvaxuFWiSkyLQFYN1lKxZpyvwGBNSpkK4Y16VtU4bQkSKanXSa3mR79Lt8nqKfFt7xAFQ/6RXSrtdqrzp9qd7WfoPSrKMFdBpl0zgNrojGjFrT9b0qJ+/n3tKptxRcf1NDulAkbQDY+JUTFloe4yZQ+sRxxeziQRLHi5bVrHm8t4Vycn9ceduvW+NJPhpxUx6AjVecMtUKmTcoK3w2OB7YHaqc8rUeja5kmTGiWdd3KZ//utKfPPYQyEVemZIhZbvSrj7F11gTuNbWtesxm81KSeqlaqUEbvyD7jW011VWzlfLbn/kjVSsbkoCsOHCE5bYhnE/GN78VCRaWtWJOLS5/GLeFc4v/laqieWUAmDD5V8qwCLAzcoMXwKuh7qlVPXSCnddKwsU2qCl17tZ8/kvLL394b93fT56v1Kmh2vPOf5I3Z/1CJStUzK4SxIgnHVvG5LlrpbK4mtnVP+yI0klDTrbUQegXV2tN+5Y821bN76LWtO0KROSSoEIN1Tqfd3jPb3kZ0+8k9TiBsh8VAFYd+WKiVq7/Qhs5o7OcL0Beiphj6MA5PJem/Jnryy749GHEpZ9nBmNGgDrVq44WguHfgORWy5rtnFWPBM9ERQAGENBZefk/qKsZOFlWnU1DGpHNowKABsuXX4edKb3AniwKAYRMuxvZHs9WppLe9h2K3tVuGjaiok33VUXfTwCFyO6joXmavWXLL8R4HsQlzRnRxiVd8Apetz/7aS9ZqsjvB11rzde/5WFI0mWzhokudSN556bledv+iW0K6dlMJdkYg81e9MEP9B2WwUFJ1Xc+vBLQ80mnnQjAsCdXz4+15OX/SdU7CiH47msP56qZuKOGAU0u0PlFJ5Zdtuv/jfZZSZdBNeuPCXPm+39CxpyVKe4HRHcJ5t2Yzd/W8vSOtqeaLzmnC8lu5FJRQLBp5mBp7Fl8YiM2E12VyY4fxFSmoV15PPL7njkoQTnHs0uaRyw7vyT8nUr9AzGfBHwsUWZkFYUwIZm1dH6YP3V58ASKTkhKQCkJYumh5+CimVJp44vqcw2OdQZz7myu/ixsVM60P5g/TfPPTkZ5EgKABt2hB5QHt8xneBLRtUzeY4IBQBCOxg0VNOex+qvOefYRJeZcADWX3zy95Vun5UZ8yW6q0Y7P9uv9jb/rrH6awnVEyYUgA0rT/4K1nW/PdqkypSfYAq44tiyC6y2PX+uu/HKiYkqgVknJNReunwpNuI+h8xS3/NAQlo8TjMJY7nYsla3HHHo0hnnVQ/bnCshHHDH5aeUA3yPZcA3DkBpgL94fYtz39twTyJaO2wA0p7PG2h/GGbfkxJRodTMAyok0SLxTxI+rvcDfjsFpSYZWCvZF6Ypo7X5vPpvX3TpcCs6bAA21rz2LWUYx4/ZSQcxYeHDdVITP2jantBPpAsFhLhmeWkQ5F1pqPtJ7ZWnHDic6g5rDFh36Rc+pdnmc3grhg3k4TQiaWkBBi2/QGl5+cp3EPTpPh/9syS4OHYBge1kG1z7L2U11sPNJZwcSC8nuLiEZMf6Ruqt7HXhJUsPqjz76iHtQR7yhKHmos/n6Mp+ED5ZEt0jCSHRsDMRjqQpzZ+t9IJiZUyfDQBid6j4D4ygZdiFRDJwSYhs9Y3rld3epuyWphQGIMDnsi5b7WNsqfkpWnLBUMgxZAB6besHWKmZOaaVzRC72tQZSps8XWXNXgAmpVEpi0kgZHKiuBMAbXhhGmkYsJD0qtD0dcoCILX6HfCdSdmf4gH117Z9/JXG6y98suSH9z8db22HBMD6K754iGoPXRFvYekXnxvIAAaAQ+keFd65VYU3f6Ssup0AIMAh3HA4rSIn1ZUxYZLSi8uUbx6HU2QtLnsZTt4jkbaznlZ7632NN1+7sOS6W+LyXxg3ALnO27Aj+IAyXLkxEg1NUBnSt51E6zdXkbKSIBrNBAADa1cp88N3MSEJK80TN/mieclFhIvqAJ5n+hzl2/cA6tjwoU/KNAp8EQPtU+ztH9+KWl8UT83jpmDDzvDVePMXxFNISsT1QMzhwwnFoDgMfInbjXAypYO4JDDBYgIcIYpFXPO/+HoeRusANo35EsjksukFu64NR1tsM3zBnp9974HCr373ta4P+/4VFwB3XXHSBBWwr+s7uxR7gr6VYGhKLylXelnloAFoBzuUuReO68kEuwDDzdTJerh/uR1oDAXNaqq7B7rhg7HDjm/qgCEuABp7AtUqOytvUBxkwKJHIgI6l9wrK1f5P/kplXX0iUrPyibrwocdL+iKVKQrEKymerV7ywZEMyR6l6gJqzrGmBEx7NQltj4JK2RkMiKdcdKAuXXTovq8+gtR6L2DKXjQAKy/8rR5qqODGadPINAwedBLSpQOfR5cf6hwQ50yG+tUeHc91Cp+B6Agnk1FM8df4TBEIkDXCu4XwEkJEMVyP0mt7gr7rr+SVGRys8WQRQuFbqi9u/qRisuq9w5U2KABqELhH4GbcKCSXoFMheMrGWMBS81Nytq1TVk7tyn4z4sCkJMKOb+DQDSg4ST4QjjQSBhlN85ErsU5GNUnkaWpuIjCPPlyAOw4jQk/uuUfV2apFhltsawJxq6d30DNbhiodoMCYOMlJ+E0oSDkV/rhrwsBMLtsX/+est5+XVnvrwUAAaABOj+qhollTgQglNJafqFS2RDp8boJZvp2ADyITzMALyiPLaBLrdPrB0UxZ/G1O/6r5vk/3j3p6M/X99eAQQHQ0tR1cRO5v1JH7RkmI36/srmkxpmnxk8flSEeyA1lvAhuRcIyEDyBDmXM2U95Dv6U8k6Y6OgJnaeD/IvDP2p3KnP7JhV85klmOsh0aRUtz7fmFXLBb/ZX6wEB2HDhsgUYKp/Qd0/1l30KPqPolAEzv1E/F1g9quqCwv3ujGADhBo4n1ZSqgzOrEUf2DNeZ4qYK+EQFoaWUMHsaRqj2GN78bI31l62+6brflT0zZvR0N7DgADELPAaya339OPvLgCkYTJjcjXkzVeVPWEjxoNxDE2Qng5LrYYGZdfvcsaSfbLhdCUv3mz8t3bV5Nt7W76GVtzQV0v6BWDDytOr4LH0jL4Sj9v74KJ2bY0Kc0JDA00EcsVBBXJd9I7Eh2cqXEWS8YE8jPweA194MdHOlfZf7rxZ+9zXAr21qF8AWlrgSuzr5Ug9E2IpQDGKcSA/FtU2URDFRhrgmuNQAe0YA11ss7mKpOyK3ds6yMR+GfvIve4TgPYpWPM1g+f0PUZysxin3xxLUrXDJb6hBPYNlvIcixcXhC43HEqGKZiGQxNM5Kz/vH0FavfL3moIKvYeGosDy/GktPenmbtCAcEL/pCTxfWhsMU/Km0J5LGkhukODdAF9o0H1j3w48XdH/F3nxwQqpfz3feyt4Tj+h6BB+DI7DdeHSAJB8IK8KgvC0LZPZYDX8yODqU11p2PZq7u3tReASjn7YbN47tHzvwGBQg+E5OHWfOVsWCR8k2djdU+iGEu4w0mCGBtFdxZo6wdm5X5PL3WMdMxHKCmsup3nLGxuvrrM6q7buXsFYB2OHxuRD8whqkyjKbBLEvzYiWkEHrAomJwQndCMYg8I3pAvRXLpLtzcNjnGA8iRiEtgh1FOTn10Ccrat6jofcxoKVOj8bIXHSjALgVxIqM3wwveBdUMpCp2BszuA/jIkd3eOPwPv5y73QrLu1/ol38HwgovbnxlO7N6cEBd1192izV0p5+BqfdW5as3+RgWM4zP3pfWdu3qDBnwrwXV8DAnMt8wYAAuTNpvPl0pkz5KwxR9FDwxK2PP55ddeqpWAR3Qg8AekLWcr7RmdAPBTiOw+Yk29wNZkhaOXysnxTdHiENvIJz3MjZ8PgI0t7cPKuRc4vfu23uKYI7oH6J+412sxuP3yBsXCoYNz5pRSASgC4I8WzMBgxRoFqxd2z5bGwTu3DA5rOPLQ3a9uFResTGzFx3o0AESGIx0+3RYH5GlvCcdWQCbyyDL0IQcHxr+9a+ARj0eDhLiWNlfTCUHoNxyPFoAcPlNCGXy8HiaSvyoBEsxoHjJ6DNwcDU+sfunld2+mUfsN1dOCBM0Y/KiN9BwIGz4Dy47CibAKPUIkjQniOZfnNBeqsNapjWZqW2bURUdMxYD/KOop3Y6qA3tRyJ5vYCQN2zNAPAAZBA7gcjBH2f/ZXnkKOVf/I06AHjXA+GKArv3I4NPB+rwJaPUSB7ZyhcdIC6puJjbHcw2/cegardy+pFOWBt9cpKtatmdirWOdXqJAapXr9wQQPKaM0bJePgqoolOBOcQMvOGQ+8rytNqC8NBQ9yb0YpZzQ1LB3TgoCci5/hBsxauZuOG5vCb/xTtWyAJKFBATetDzbQzL+pSdm765w14Wi68cEF7baWfWruvTdn0sUXt0UBiKNTxyYAATq7I6SwvAgpB70bvF1pXkwexFYt2vO9XxAPPmw68ucAvDAcgHtaOwQdKgBnYWun1dbauR8kTmzbYRgh4AN7S5SB3XmsE8vjxISfRLwsvbdqdO9iY6URCOh62+Z9UZE3owCEUnTJ6NYsCaW7DIV+jQlA2N9pWXCxFt1OOUCZ5HYwv9dkMzsQJrNWbqNEgDUzf9sQp0OSowQeOSFEkpRBEDKwDIJzTAa0mf+x11oPhuehiQ4AYXxqNFiBBSJKxlTDoVFCH9stjbIf2IQBgB/WK+rjD5TpwVgkHGFbLlDdtru3sUHdP3WqMmbMwMAZ1s8N9dhPXINYSECxSxC5+jw3bTzfOIiI6T3T5ipjYpXka8PM38am+THLAdFKG+vCqmU3OgJk5J/6Kn0WGgzWMMYCgcUlr0BIABiu24FtmXA4OXGq0rGtUsSwiLtu7eY9gEufNQ873yYiTb4y90DkUm1C7iQAJemkgDi/EZ3puQ4MKxpj7v7KO2maMqDOCWOTktWEzUrNuxEnjjElskurIFw+OIN1FgBqIXPhkMRIOrSanR0KK7OpUQV3bIHtnke4DV2i6RDHtGoRPR6/5QORiG89C7Pcufspo6QCY0a/CtfuUNZeuL7j2AzOjuQTTeOmHeCbHJMkx7f8y81XxrxPYG/xJGVgm2cI9bOaasGxCUBBeTpQOP46QgTDOmYaE8oYULPshWO2uexzjPms7RthGr5XBWYvVJ7iCpV/2ETVDmWyWb9ThT982/EFQ4ogrnf+J7Dfd6LKPvAQDI0tFWrcqYIvPyfA0AAWASzjxhngvkzc/OrZueB8qEf5ROXfbzHsWwOySb3jDw/D+eUuGauO6fUoGHBYtj2B5BMAQq81V8YzcRI0PaIDgfhv0xUGwBZ88RmlZs9XnhlzlHfGXOWpnKI82FyuOvCcIcIhtew82fEWXPsq9gDvgMjsECeSHiiehxq4AYlueOnWQ6+YJJMb7qoLrnlJmTu2Kpvg42Qpnn3GQ63MqKYDu7NVJwDB7icPSi0xqpUeZuHgPnZrWIVe+RvA1qpsiF/fjH2UBm7omzw9IvEwSyZYWRTEdhDLZIE3XoAbjRqlIw5Bm3XwkXhItjqUwJwhfFEIryysqARrtqjA6y8qG+7gbOydkKxFVA8l//RJA7d0xfbq1REVvqZNGbNjwGifRDghgBh65w1lYSbcUTVD6XmFypg0FasSuQAhvHzCK5aJZTK7BROOjeuUiVkpIWm37FWhrRDj9JQ/pCCwdlQ3wbAK12xyJhv0Oc0xH9U5xPVQsT2kOo1WItLC1Np3bKgQESwccKy3PNqx4D7gPCZEnQbOZu1tVlDCw4klFM4CwA645q1TNpTMdOUmejmqXAL4DRFuRty8Da3rMLPFiokN7kq3HPRBKOeB8AAchnHA+aSdwv5t1WG1l2p7vnJKScgXapAH4+oPqEBrZnIejO9wQUbnBHI56vcEtPjDGSnt/kwAlSqE4QYCjasrBPZ4DKQ56Kst/ezhng5fW5Fhk9hC7fFFDjaZIMBqR2QQ6LRf/HDyYQSRvCTno9olXssXJ8duf5HPeKR3LBXwUhvhYK7Ha9q51rh8EYkqBAKhT8evkThkhbzsM57klPkTJwWwHp6r2x2BvC5vf5yZZKJnKDBUCtghEwBUWu5QM8iky1BgOBTA6Cdbt40xuAY8HKpk0o4oBXTd9kAfMaJlpmZhnG+4s+DUrOHYqRXpHDllymN7AcAxhEAN7jJkYkGdnmyZRGtjXjCNy1wy8cBNLntJQBzxmO8QpjMdKeUk1rjxiDNmfpgOszj+i+4HQVSu9TI4PqNjCpW7kT/u7YixgZTA+vA3luqkbMmkM5FGlZB4YEDZ3EUXKbszRppdkQYRLYDHNrzhyHWataKX6qIhelGJWBfbOALB3oMVBte4kzo/PNfycNATj1gAUK1GrL0SpAg6rF4EXACRCZMoMTgl+ByEiBm+loO0sFqxd8Nmj0csIK1eWIR0cEVLZ5NYTiNg9eLyCGBI6V4CbwNsrJsJhTfPI2agnRztAZ06S8GSt15S5qh/AH74XXZeAEmRxn9IA9DNY2T5QlYgmMYtiVSdnA2rGdkrzsHSWpXq+M97Kvj0b5W9azv0fDB3B0fUcGqSduixWAOeq7zlE9TeB3+irD04mRwh79wrZJMRAdH22//GjrUNWP1ocwAKc3lt6izlX3S48sFSpvXPjylz439wxkejylp+lqSzAJ6O//m5gDjrS5cooxCnM9HMvnvgS4CPhUOpeUxD29+eVLmnXSJ1D2OlpeP3sIjB+rC8LDCM4AuVczb8fEP/aLa2qo5HfoYXIJVPU+/e4F5+o/3k6HZ2ruWBRr6ZBpsiAvp4YXvJIgVvUYSBI+XkyvquLK1RcRw7sMNP3iEwhJvxOYkBzqLl5IMTgZtl5cDoYDYIhO2DH/xbgCt5UATCgEHPBRcksCJ5cw1ZJ2eEjpB7TSwsr4XeW6NM1IN2hNw/7JkIq2pwscAHEbMvAJum/FYjOCaMT2lrSC7nhaVNsKISRgkwlgCX1bHvWC+HrWBRqQrDK394C0BPgwVyTzYkbYNYQyrb0Ds8puGrl40x4BBp3SqOoSASOV6STUeylNatlxBFNhbJ2M0dC6LVBCDMpAgYAyAyps9VNq4t2glGOlnGe+ReAKIGcBK3MoyT8RnGnQakCNLaHW0qtGYVAIr88ZunrWdD5Bs4kDoIYFrgyGJyj2cyntuzRwU3rVMeLPP5YSNoTKgS0zELBrSqYrJSSK9z+yYMVc0P/60sgFMAiDqke8AwqN1T5puEEytqI40C0cZqIBa74bFHUwFg2TcyewGslCcrk3tHPnovZsxFBPNF7SNgDwm5pU3wsCwCEKJYhTBxAMezcTCNDa5HYwfZGCXZaMp8d7XSYO5vLVqivPssBCcuVO3vrFG+uQuUZ+a+Kox0YVji0CWczB45EUr3AInhLSlt0XGuK/zNai3p3p7B1d/lZ73HxoZpnKaJfRncNAMC6TTTgkiWycmA6GWeEYRTRALMzl7hGMByEZ4fzpa5j5iqCOxZEcsbmH9ZmDSJSMckRscYleNIlm+Ca1oc98GMiwB3i+m9FWlwV4Y9IIEva4/zKmnGzqisSYP6D6mKxF4MFnrkAXlK27/2N17EWG0tXGdsU9lHfkb2jxAUDghBLhIvNlAOiyx2b+K5xCFpGRcqFJbNOORcfEaVDh/xw4eYkFgNtarj3TfEMMKDCY/nmOXKwJhQh6ht++efVYiTHor1sRCELNiVWFDUSCqRKBvGQrv6bQMBEFF+9h4PzzmuwiQj+NarKvDqs8qTW6C8OJDQg5kzuZZsJu/OfnoAsPfcHRT28QyApNgOPvM7McvnGDbvyOOwFbRdBTYAeBgKKIrtKGj7yCddbvNFxNg55M2rFQBiSP1RutR9wHrGAiL2mgmF40S+3esuGeImwQBxyHEaNywZhcWYxU4RL1gaXPMmPrBM5IqdYjaMY6kWMmEhTdFrYexn8jw5ObcY7FvqLH8SX42RzFFEsKetfN99WyAf8G76PB+rkMMMR7IeySjLwmxSoycEBhmHYdwE5uaIPqfz+JeKgK7Buct4VChbLXtU6wtPq9xjT1JezIpNiD8du9h6cDIRqd3z6pqz82uAOHxZMAYNffwhdskFlQ+blsyP3hV9ow39pdS/t2zT8R5Xq7KytrLqgjq4nvhIlnvSsTFundmBWFmw9+4VJS+3PGpcYYB+T7Amimq/8s3iLLME+jqsZIDjcPwlIRZIUMlw4cR8/03s3diCmXGzysE+Yi9A0WOsHJvOrUv370HFQSLU0caMmVsGZFmOfqi59BZ5N7pnm66/xRVJbuFm1l84oKay3rYplzlDS9sAAGKMR7CovXCCyM1GxThprHWPcxoR9HeipOZSHTu6DfEo2sgluwdOEgBoLuVZjbVyMrqX3I8gJjiSFQg0zqDdfqDKhx/e5xuR9gF9xHZwRcqfhcFtBIDFN969ue6qM+qxOQeLjmkaOMEABwxii6O+bZMqOP0ipZ9+IbhhO/y5bBNffBomFb7JU1XwP++odujeuAPOmcH20rnIjqHjuT9hRaJSeS64GqDO7yG4nViZv4OmAL2MYUXJLinHzCoCQF7o+QVrcKjcMofCvXQII6VyoJjjeinWcK2mOtX6j6dEjaGysEwGfZqcStnWovZiXCcK5g3vY1aL8SE4v40JQBDbI2Hb4ohl6uiYHwLdZFiYAbe//A9sYp8khgM4hNlJS8zDnYbG9WQskdkQmchQ0jl0BBeF0QJ90nBpUDbHk7tR2vQIKA/Le3wp7L27UZ/1sqxnh8mhI29DjzRpeIMcHmotu7B8LWsvIpgXmidrDTwkLBN+79Cet9MnuOMs4WqmCm/+GG3CSkR+ITofejxMTCwskwlAwRFtOIiUwKU0EIVWJjbz4LiQimIiiHQgSOE1gft4uStOxxiTimMlwODJ53AySUBiAsFPl8BxKYBJh0MWjvZSocg6bm8AZFkELwGIWXh4B+oI4wOxjBlD+OOQAsueZlupeostlmbzou4n3z5Re2/tH6N2Z7yZxkHWtwVI6D2uu0ZWJrAAHmkVm86exTf/u6Dj+DDa7shziYVrinmKEDpuYXIAVrMjs2w+osECx4/RwJuM43Axm2DHLSfwgpm4wXkAjwFOHJYjLxXy43eXuG6adPtG27DKpC05Zn3pBdfMZe2jHFAvq3gRYgqeA0GlWLqkWxulvhB97mCeHaow2eBvGdCjyQSJtDHSUPa5PI80Vp7HdDonJMyH4pN5EMSRPBxs4VmfNIukZUROYqIRuydwfiM24rAslsP4YySwWWi7BkW/nluARW0nRF/X0rO+Bi2ouVoa7z5N2290JgHCUyxh1SIdz/287rVwlG6Nk7iIT5B0f87fFJs98sB9uYd0TM8yuwTWAx9yPg+V2LgeKDAP1kHqGnlZBpNuoHxT4jnaD5d0MFHrCUCpnz/72d4HyClR+0wl0poCYIGYZGlwxmmVT+wdgEZp5d/kTRZ2mdatzVQ+FSkABthaUKrM7PzeAVh0wLEv4yhSrHqnEALpYpfWxxSBIhopxgZRP0ZzP9HO6JbOfd7fdzRtzAXr5KaJud3lcqDn0cgxdWIaaSsu+C3Bfe5+R25Hv3jf/eBShgux6d2IfaV3nyf5G2NoTsUafHmqMUttcUtzW+n+Vg3fvvA+eG66sOd4Jhol+RdCKwzCSUyOGeipHmMoGx6qeEwqDTyxq96pR48WRKrnep3HTy2M+G4f8ZuDey8+XJNk4Aw5MvajtbPoB5mAoKdjS04I3HL4zaMbCELOimlsyjxjAi2sZcbL+jMeVTa9rbhIGjyXshCXm6Vo3o9xJfevWNAHSv7RPTvML6YgXjItJ0YcM/LsOgzyIeikzo7nLZTN+kvCXtJ3yy5ZPztQhSaclvmTULna95BDn/nckYectGDBgmB0Fhwt2Ot/EpW9MPp7xC+c3tRLyh1j0LIKpbNjMMi36cUKS2EW9HLWzq2ybipGmuxkt2d4SS+nMCZ1XK7hBo1Mqauj/g5KZg3LcQb3XvDMELaPHRThsPQPbSMOfQVqcJsW3vKRUjzXjR0NZbLGPScTpji/odczN29wdHXCnZEX88ELY8CCRkz0YefHslUYZUucGAQxTwTqKnlqEveA0DOrABCTEQuKc64L80Abqxl5UC+I7J18kJbLWgRrPvazwNGm2C3mYi8KW4U22S1N4n7OotPzltGyOXbryQmVT7UHNbW1rmHZK++tfxiahdN7ALCkMvhc4y6tCbRx9goKiUb4D+jnX3KcMqbNUb7Z8wRQqL10uoXFeXqrb3vsPvhT3qks+PhzwOPWESdzY+tk9gmnKy8cUJI7taz6q4KOU9nr3gUHbVe+eccp/7IvKg/N5ckNI0CQyLwmUGRdGSsnD/1UmZuwbAmFMpfk9DkLVd7xJ0tUE+Bqve8mmE2BC7oqE+ocsW6cu+I82QfS8vQTSq1/1/E1GMOVpbYEOcozFixWninYO3LYMbI3xZE+rAN0gXjZ9sI+Ua39l7LegZJCj3BtJwMYXBQqzyePUtmLj4g4VOdzl1btWHZ8VwX+/YYy4elVuHCPmbpLtyR9g5zk0B5w5qzC8nBZYf61b6/fcPNzr64+JTfbv6cHALWL7wvVf+/yR1TNlq+yHdKYJNWte7YUXXrlZOU/fgWsVuA+F53ZtvplgIwm6fVKK4U7XbjV9QGY2f/nfGVu26Tan/qVs5dWxAxqC1FELuKprBIgsg3Z2E4ZaMbmH1oVQ8QGafL0v0gHQHDDj4H9HzlLjpUNRe1vvgIPqViFoM9oiE0bR3LRgSVNorwz5yk/rKTpZJwc0gAn1eHMnICh+ZYTSDTwIIh32RzFmwQ0OyIa8AN5c7+I5+AjYHz6OVFis36h9e+Bc8GAAv88U2Zi33GJyv/E4SpUWqmC02ap4At/EceW3BDvOfKzij6rsw/Cc0iEwNuvq9CGdWI4y+PEsnDfg1mnp3KqagNtLXh8tUAzOWrW5djROiXxAn3jm1ilyg445KE7jznxxw/+7s//eWnNW7+969HfX0CG3iNY+aUPOErXHo+SewNGmDShMiDi6CGAeyQsiEBr+2Y5IMbavkmZNVuwjXE7jlGAKMTZGrLph2KPnAsN1ThmhBEpxaCJJS0TeRAwvM81SHIqu70Vhp44DgHg4hKcbI8kt4F1DJfW5B5AaGENV5bX2Fk8tgHiTUc+tLiRdV+8ICI+OW4TJbW87qCR+43LvjoaoOXYluCXlRpwWBMAsaWtKFtO09yAl2yj7ITTcvGiyLACe1Soe4Ru0TNhojJKy6U47iU2uX7MeiMtvzl8sHdjkz3fCWwPFT+IfdUnWT3L8oRORSFVNOn7LOb8FSf8ae6MqSfrhtHRgwMyQsVV1W/Vn79sjfJqB3FzzkgFDeMmfTrELvZEtP3reRBwgwo/+5SzJMVB9gYAZMtGFYJYycEGdC0nW3mwgy0EQAogwKl0bDrXp8xQBsZqreAIPM8t7wiIc+6xhZizwP0ULZ5x5ofNMRTAY2M3m4z7MN4K4whVC+UqgNQRz4gD0GqlSM+xI8aBrW+/przgsD7kp8+ai8G/R5lb1jsTARKLYCTh++xsPIMrEI5F/TgnJEQraHCujicecMatVFwzm3Vvy5jTyslRWRD9WQccogKvPIv3TMwmlA9HxpLbB7dtUB1/e0o2ujvjXiRGEe3c7rnfwRDx6EaYpznjy167XMpLyh8wBzIEe1LVL0oWLdrslvHNC77816tuvefzfdYGg9pfWIG2g/qevblZJeCb3IsiDWLGKJkg3uPpRNzatF725zocBeXgzadfZQuGBm2/uQ+3IaggWuXoJxCc4pVHLxg4jiuInWRh7MOV+BBzWlGZMiC+bYBXlt1kC+Ug6o56cQbumTkH9atAWhg6wMm5TQsYTIy8M+crEy9HePUqvCgRgULgSZvICbsFDhUAfL0UnB4TLQMclaZh5O4KkyKZjbtJ2F7kY2LsZ8Kw1sOXaGKVAB1TJeHGHCoE38KLBkMLEa1MizGwOy42AUIT4ll24UWHCW4BSf4GQyD3s6bPCWhFpTd2L+2Oq1f+o08ABisn/NqzdcsPoUIoFlWC8PHuWSTwNwjNQwHlMEEsSXN/hJwYJOun6DSWT5DBaIAHzlh0ncFAVYhwHHQ+VCv0s8JTzLm3gidakpMRoDrGROJhIFY8Ojn0/5dAQrl6EWblmI2LCgj52gAOy9BxcA0trKlCEcuZ/nPD0wgoIX5FJAJknKXSo4Is2bGNbiCgEV180ZAjk0bghuLfhu3GbJ8vk8n6kAYciiDQGFfyhvdHAR6tdAB6KZlx+BKMRJByUG5Jyf8rX3Ls9t6K7BOAlVff1lp/9dk/V617r496juoth4TcI5XxRsMUXudbDx2fBbMkfgT8QrmuBTm2dzH3sGFIK4fhaAXGRTAcbX7+D8qGrR7BGQQHMKDq8FRNVwGOAzHeQoExifu5ZKejTr45C0S3F9gIrrxrK6y7MBuHqCyYcYYyqT6pmoXxG8oDx3Rmscy/lzIIaASOdem2QwKGBKCzcx37V8CI+NRjciIE9RBVUvTaIDv0mBd1os31ABrFPsQd0mQf9wVlTJ+tjIJ8YcRSp5ClOv71rIhwvtwjAkLW3+drU/MOvDm2WbHXfQKQkazcvLv05sZv4JIr6ckLpBrGWTT85IcnkHNXGD89gMZakPBi/IlvvtHgkhomJd55i2QPCM2iqFOzMfslBiwogj1QHnvyCzDGnCWDdJsesESp1lezkBDl6FOwNxd7QXiikgm9nImxo7ZoKQgLwMPdBkdjnOD4DjxYBalvdMUckveGPykN+dKFh+j4KOIxDhUdXm9VAW10Lw5YBOj4gnLDEvWgmtgegm40gsgFx1M7hdvZGLN3vPZPqJ3eBGmQtmqmMuBdIWvmPjIZ67tSvRU+xHvsH3BoffIMTCgq7ylb8ElUrveA3us7VFTfs9P2+x8m+05uxZE/xU0QYwZ+CCioR6j0lXIpbtgochcCDuILFtwQNeAg1P5jx7mGMR1nhOKbj3HZqTwOC2odsavD+JCqCQ1jTBmMM05/gY8RRzgVleJIyzGeAA4zVw33WIYMAVAnjg9FhIp0I734QZB6x37LTYcLgxNrEFM0UWJ7JTA+RRc/LJ90gaKZQxOpMbk3V2e4WUnELl4Aily8dEiA/zSu3SYz4jDG0NRVWtz7ElnpkUxYRtID6l5cvtdTPOGW/orqlwMyoXfOgTeG33/zbDQM07YIUfvLcRjPTMxASWj9sKOVvs8BziB722aInjD6E2VTdzZlOt7oucp32KdlbBeEIyBz9UsAHpwKTZktAKV48gJotmyjRFIZJ6JjeB/6vjA616rZPIiaQheHc+WMabNRB4g4pDO4yoJZunQ2wGEiTxq/GpXTHJFK8UYXDC6p+NJYAICJcVgQIMGp7QSWqE0w6QiDo/rnH6hMDBvMta84+kextkZbsZ2A4PQdcbwyqFQH4CxMKqgeIuBMeNCiNy8/lNAdmAnL0l0HRHK781xxLwteymzQSwAq+BwB8IEeGhiDtviwOwuO+AzGB32HAQFYdPl3NtZfcdr9GGusdF7BvjMb7hML+3HpByUEXZgXYzkPOiWI8RHvWxgjaTlZcJ22jzjs0cFxZCUEqyE6dr8ZjF9apkLUG8KPSvgDWHzLBAa1ArcwcPavjVUVLxS7FlYPOOHpFO8uWiItkD7CPYKtEHljvGayblCLhNa9g7cSejgmAeezoAZi+X4oqXW4UZNlNwKeLwzSi7NKgFNo58HEg8uGACDVQAQq9wH7Zi2AF62Zyn/MSaJct7D0R/FsYMyqQ8z7oGymv5rgRx9gKwHOE8aSHDs4DE7HJUsvhgfW4qXKhNLZBO3g9RE6Rky6cDIoPX2J3jDSNKfi0R+Jv0DbBOwlE3argkm3DVTAgABkBnZu4Q+0lsbzMMvD/B4FRF/vgbKP7zm9g9J9GVcEsveFjgsi1MY0nntzVQRoXgDQjwF2iJ5EOTPcuRkTgNlKg1jkRKMNAAwjvYVxUPStx2K+BwC2MYPMhf4uhN1xCkplHkjoBAcUIi7dt4wA4riLYKXyGbPu0PtrcWzrs+hciH0CCVwoDD2jB6qfbCyn6eA2OoBlUUxShIJD0r+fXFNcQ4wzyIwVqiTEkJUPP14O0VMedYLqwNhN7XFA5l34CYC6THmgL+wA+DrwAshh1nSehBAG1/PA0tqPcZ6FVQ8d6icbKiKqYTh8ydr/k1DYYxwNzimm/kzEF0f+sB+TENhuvHjahCk3Fe2/Pzqp/zAoAJb/8L4d9Tdcfqfa/NG14m20/zyH/hQDaK5KBP/4MMYwIB46zzvvAChrcbj0flQWQwShwzvefVMFXnwa7jPgVg7g0gBKhRlwYPsmZW3ALBWuzFQOQCbExhc7AQvzdDgZAEewAAR90nSIMHBJelJAvoF6rHpg1cRu4xIcx0wYwE+sghYDi/oAewBpxXsVXfISnBIwJtyGMgG0AMrUAAA6v7SwnBdE3XggNjmzUY7xIUUx+pxjOrYDglI4uAlnSHuhguE6s3fhQcoHRbzmnY+qw4sqjC94kGHzqmeg++SK0EYHvJikcSkwtOpvKgwOHdq6SfmQlhLAd+znRR3EtMH33kJ7YNCAcn2fOBQvSwveCahFWP1k4I95Mu+s7C175h92p5BogD8uJQeIBoOSO6sL7A/XYgCiVUrkQaccMOvOCBGisH91DvQx/tEnTpUN5Vy24nGm1JdZ2GxuUR2C3/QkQAWzuDXDpCTMtVRwIRGvMXXkLFmDSOeMUDgtAEIRLlyqCEphiFCK6jDXUrm5Hb2mQbR6ps6RiQ7XUC2AmFsyo4H1pfoH5XpnzRdlsCi+wbE9UNu4ahbZIIVGyb4SNg6gDhNMaItdB6CWlMpMmOvgOgAl4yfq7QAYznjpypcHJ9q0aGGb5AVA4UQSXyZYDHHNl5Mycj5ZPgRdwhDHoqRHErqakyVGnktMqyKiMpGB+fGDNqiyCV8uu7z64cFkH9NFA0dvvPa8s+Aw59coKUKEgdMMOYZwDJQD3ZfMEDlmIzAw6Bf7OnAamTlTFNJejvEZOCt2x37OHecvogmBSHwudfHjtp5iQ2aKmHHKrDoSlx0s9n5IzPvseOn82IxxzdmoqIVwDQ4na7ui/I3UqVt0+SnjSMTlrJ51Yx7YOir2gKgbOZzChEL0ex7EkbLx3T2w0zlBYh6cCWM2Lb5xcM+mRoFt5IfbS6HPpHhMSmA9QEd98dI3iy+8ejFeOtZowMCqxRXqLj3pJc20YPuTpIa4tZHqR9ognc6q8jc+/JKaR+5JNPnjdFQUWW5mkaRuernNTo2kiaZHflGA4abIKhdEfMaE8kdy6PzDuJG85CbjxP7ujNl5xTj4SB0i8ZmH29Zo8sgFo/RZtpsr84vkJXRyr/mc+bjP3fgJ+nbr7fXa+pkXHVly6HGrBptz3CgycnMvs9o7sDhpQy0TadRgS4snHmnnElz6AH/ce/LtZkaixsR1b3f/jsaJTRy5jj6LTYSbcr8XrhMbTa4ZVyLHPOn+O+ZRl0s3Xi95yCP3eZdEMT+YLuangIG/3fvuQ/c7Jm7CLtE3nGBVTLw3HvCx+MFQt0s1S2579G0tv/hGERkCjC6Pk/ODtEsm/ZJT6+HlOtT2DjXdsGoLIBSV1OjLTrwu3mziBiALKJlxyA8xzlo77kARL3XHQ3xgz8AEzNhn/8tKFh/nWuUOuuVDAqB28cUhvbziHIAQDlFGig0Ouk2ZiEmnAPqc3c4PJ1FTZjxRfObKp4ZS7JAAyIJKvn/fO1ASf0tmYEMpOZMmvSkABbjMAaDz0xYsuXiojRkyAFlg2R2P3q5XzfijTPEznHCofZCG6aAmx9q7XjE57Ft2yhmDWfHoq5HDAiB1Pcak0nOhf9osBWSkcV90HkP3I7IXy5qqoOi7BctOfmU4jUvInKn+O5cdouprXsTMGK/FsDA9nLZk0o4EBbhMCeWJ9qllfy8587Jlg1U491W1hKCl7Pt3v6Zyci6iTZ4MTPsqLXM/vSkA5qflYSdi1bT1xtQDThsu+EiMhACQGZXd/shDdl7hzTIrzowHSZKxEyJSl5u+tPKJTd45+59YtHTpgJYugyFAQkSwWxAW27WGS5Y/iVWBL/RcGXBjZb7TjgK0b0SAyVvIOPzTnylatuK5RLUhYRxQKohJSXDRorPsnPxVjn7QqXiiKpvJZ6QpgP6jNKP9IyyG1AGHrEwk+NiahAKQGU66uLrNqMg5UXk9cMZCBuuC0P1mrExICwqwy2CVQ1M2vWzSNaVfPOcXia53QkVwbOVaHn+wPPjCH1/CMQMw1gPOk1ZSbKmZ64RRgOZgNLDAhnjjk0uri0+7+IaE5R2TUcI5oJt3/qnn16nyKZ+GlcR6516GA7q0Se1v9BPFLu0GaVtYNfPWZIGPdEg6X6qtXllp1O/8BzZVL3DEMYskGJNeNNuXCfFSgODjBx4f7LIJPy7/2g3cF560MCIoaP6fe8uCL//1GSzZLRJnRyNSatJoNnYzplU2FxKKsbnq+C9cX3LUCTclu7FJE8GxFS848+J6vWruMaqw9IWMeiaWMilyTY5H8NHLQk6+qU3f56KRAB9bPyIAZEEl192yp3Tx9ON1j449JZmQUhTghAN7X7SS0g5j5uxTSy+6+v6Rqt+oCMOG6ku/qxobbsDhiM5Gmh7m7CPV/PFeDjkfNsnTBcqMudu0/Q9dUXbUZ7GxeOTCiHHA2CaVVv/8e9i3ezqsaByXUKBDJowUBUBs0psfvvjYbagKi162pk1ZPNLgY4tHhQOyYIb6W66ZpzavfxKTE/i1gCHDqNbGqdPY/0sAOoTW/NhXdvTye4un7Hu5tngxzVxGPIx6l+/81a9yvXs23m+//cYZcjgL30oqrjMh8RTg/mfgT6N3h9IJu62Dl64sP/akRxNf0OBzHHUAulWtv/qss3Eu751wN1UoTlOkZilTPbea6fdNUcvALbR8sbF5HW5JXlCTq84uOfuKLc7D0fubUj3ccPcPquyaTf+t6nYd6yzfoXopVcPR66ghlyyWLHAzAu8KcBgUVFUzvlt87tdvhS0f2OHoh5TrXpp0Nd35f1fCQfkPcUIRnJ3grZVaplxVR7/3+quB6PYAPDgy4nFn9r77v6AqJl9aduLpH/SXbKSfpWyv1t145UR9x9bb4YT7DBm4kKAZdjgAPiLy1u1VnM2m8vLq4LHgv8quufVXAyQelcduVUel8MEUWn//Tceomm0/U7U18+RcOLgXy+w76YVyxJ67ogGvYiq3IKwOXnqfZ+b0bxftnxjr5V5KHfatlAcgW2g//rixZ++W88z1H1bbrXsmK56JoUG0yIx52DRI8wyAvAjj4zkj8IltW9Nm/8YuKf1OxWdO/SjVG5cWAHSJuPXHV2Xn1jVfbu1uuBbgKxGRzA3SIprdXmDstGqW27xBfLONbJv7zST4DQMCcc5eXPq0fsDB1xd/4by3+CQdQlr2VO3zz+cZ6167CK5sr1Jb1k/pPCmJPvxI9rRs1iDwAuBRzIo/QEww6Jm/oCisTZv1hD77wNuLDl26ZhCZpFSUtO4p+957vQ2N676kmhq+oULBhc7RBdQusKPwle5gZBtc+cq2cMhBv4x0bunPbjYmTv2FXVT801TQ57GmQwlpDcDYBjc8ePsS+8N/X6S1t52Kpb1sOQ+OCEzncSIBKLN/XHCpEkeR2SUTVulV039plc19vHz58hh/wbHUSJ/rMQNAl+SNq/9eqPYEztTWrT0Np5kvVa3Nupw0zpZSp4hTKiOs0U2SGt8EmphFYUmW1+ByOOAPahQcUjNnv832pKm/NsumPlSxYEHKTyziIeiYA2Bs42vvrq7UW1q/qPbuPgUiGqc6mx45NIZrovLhBAadLasF3UmB38P2AEtQMV989wi8h2e0QKZYJafmNcWrYdgqK+9NraLiD3p2/h+Kz7sqbSYVPZo5wA1SZ1yEhr88XGA1NB9lbF1/HA6sPk4FAvsonLrJAb0488au/y5BRDfJMwwSCVdjrgRbNxDC+TrFqpwOipUKHD+2QS8sXmVNnfOSlV/0l/Ljl9cw5VgPw6BuepOm9vXXK7Na6xbbgfaD7eaGg+3a2sWqva3cbKqD13140uehifDIj22lwA7AgyNkhWtSTPYXyMXEEz0BDfLKoTa45n3q6XDykae4vEaVlL6HY7beDRdPeNUqqlhVPn/+jv6yHavPxi0Ae+vQ5od+Vhqq3zEHx2TN0czQHC3QPt0KhXlKdQWOcSjHdzn2Tvh7cDPJTEiJIyL1dhzp0IzxZg2uazR/7g4cZFNje42thj/nA72k7H2I1N29lT8e72UAGGevc1Vm25Qpvlxfqy8YyPEbftPwBT2BxkCgbcbRR4N1ZkI8FPj/hHs9z8JporMAAAAASUVORK5CYII=;" vertex="1" parent="1">
                    <mxGeometry x="300" y="295.75" width="26.5" height="26.5" as="geometry"/>
                </mxCell>
                <mxCell id="258" value="" style="shape=mxgraph.signs.healthcare.brain;html=1;pointerEvents=1;fillColor=#000000;strokeColor=none;verticalLabelPosition=bottom;verticalAlign=top;align=center;" vertex="1" parent="1">
                    <mxGeometry x="374.22" y="288.25" width="44.96" height="39" as="geometry"/>
                </mxCell>
                <mxCell id="259" value="" style="shape=image;html=1;verticalAlign=top;verticalLabelPosition=bottom;labelBackgroundColor=#ffffff;imageAspect=0;aspect=fixed;image=https://cdn3.iconfinder.com/data/icons/user-interface-169/32/dashboard-128.png" vertex="1" parent="1">
                    <mxGeometry x="332" y="291.5" width="38" height="38" as="geometry"/>
                </mxCell>
                <mxCell id="260" value="" style="sketch=0;outlineConnect=0;fontColor=#232F3E;gradientColor=none;fillColor=#000000;strokeColor=none;dashed=0;verticalLabelPosition=bottom;verticalAlign=top;align=center;html=1;fontSize=12;fontStyle=0;aspect=fixed;pointerEvents=1;shape=mxgraph.aws4.sagemaker_notebook;" vertex="1" parent="1">
                    <mxGeometry x="430" y="282.98" width="45.37" height="52.04" as="geometry"/>
                </mxCell>
                <mxCell id="266" value="" style="group" vertex="1" connectable="0" parent="1">
                    <mxGeometry x="487" y="241" width="170" height="103" as="geometry"/>
                </mxCell>
                <mxCell id="244" value="&lt;i style=&quot;font-size: 10px;&quot;&gt;&lt;u style=&quot;font-size: 10px;&quot;&gt;Group company&lt;br&gt;Data User&lt;br&gt;&lt;/u&gt;&lt;/i&gt;" style="text;html=1;strokeColor=none;fillColor=none;align=center;verticalAlign=middle;whiteSpace=wrap;rounded=0;fontSize=10;" vertex="1" parent="266">
                    <mxGeometry x="82.5" width="87.5" height="30" as="geometry"/>
                </mxCell>
                <mxCell id="262" value="" style="shape=image;verticalLabelPosition=bottom;labelBackgroundColor=default;verticalAlign=top;aspect=fixed;imageAspect=0;image=data:image/png,iVBORw0KGgoAAAANSUhEUgAAAKAAAACgCAYAAACLz2ctAAABdWlDQ1BrQ0dDb2xvclNwYWNlRGlzcGxheVAzAAAokXWQvUvDUBTFT6tS0DqIDh0cMolD1NIKdnFoKxRFMFQFq1OafgltfCQpUnETVyn4H1jBWXCwiFRwcXAQRAcR3Zw6KbhoeN6XVNoi3sfl/Ticc7lcwBtQGSv2AijplpFMxKS11Lrke4OHnlOqZrKooiwK/v276/PR9d5PiFlNu3YQ2U9cl84ul3aeAlN//V3Vn8maGv3f1EGNGRbgkYmVbYsJ3iUeMWgp4qrgvMvHgtMunzuelWSc+JZY0gpqhrhJLKc79HwHl4plrbWD2N6f1VeXxRzqUcxhEyYYilBRgQQF4X/8044/ji1yV2BQLo8CLMpESRETssTz0KFhEjJxCEHqkLhz634PrfvJbW3vFZhtcM4v2tpCAzidoZPV29p4BBgaAG7qTDVUR+qh9uZywPsJMJgChu8os2HmwiF3e38M6Hvh/GMM8B0CdpXzryPO7RqFn4Er/QcXKWq8UwZBywAAAHhlWElmTU0AKgAAAAgABQESAAMAAAABAAEAAAEaAAUAAAABAAAASgEbAAUAAAABAAAAUgEoAAMAAAABAAIAAIdpAAQAAAABAAAAWgAAAAAAAACQAAAAAQAAAJAAAAABAAKgAgAEAAAAAQAAAKCgAwAEAAAAAQAAAKAAAAAAAgfBwQAAAAlwSFlzAAAWJQAAFiUBSVIk8AAAAp5pVFh0WE1MOmNvbS5hZG9iZS54bXAAAAAAADx4OnhtcG1ldGEgeG1sbnM6eD0iYWRvYmU6bnM6bWV0YS8iIHg6eG1wdGs9IlhNUCBDb3JlIDYuMC4wIj4KICAgPHJkZjpSREYgeG1sbnM6cmRmPSJodHRwOi8vd3d3LnczLm9yZy8xOTk5LzAyLzIyLXJkZi1zeW50YXgtbnMjIj4KICAgICAgPHJkZjpEZXNjcmlwdGlvbiByZGY6YWJvdXQ9IiIKICAgICAgICAgICAgeG1sbnM6dGlmZj0iaHR0cDovL25zLmFkb2JlLmNvbS90aWZmLzEuMC8iCiAgICAgICAgICAgIHhtbG5zOmV4aWY9Imh0dHA6Ly9ucy5hZG9iZS5jb20vZXhpZi8xLjAvIj4KICAgICAgICAgPHRpZmY6WFJlc29sdXRpb24+MTQ0PC90aWZmOlhSZXNvbHV0aW9uPgogICAgICAgICA8dGlmZjpZUmVzb2x1dGlvbj4xNDQ8L3RpZmY6WVJlc29sdXRpb24+CiAgICAgICAgIDx0aWZmOk9yaWVudGF0aW9uPjE8L3RpZmY6T3JpZW50YXRpb24+CiAgICAgICAgIDx0aWZmOlJlc29sdXRpb25Vbml0PjI8L3RpZmY6UmVzb2x1dGlvblVuaXQ+CiAgICAgICAgIDxleGlmOlBpeGVsWURpbWVuc2lvbj4xNjA8L2V4aWY6UGl4ZWxZRGltZW5zaW9uPgogICAgICAgICA8ZXhpZjpQaXhlbFhEaW1lbnNpb24+MTYwPC9leGlmOlBpeGVsWERpbWVuc2lvbj4KICAgICAgPC9yZGY6RGVzY3JpcHRpb24+CiAgIDwvcmRmOlJERj4KPC94OnhtcG1ldGE+Cp1x3U4AADe/SURBVHgB7X0JgBxVtfatql5m32cyWSZ7AllYDEEgEGQRooIE488qsskaREAfi7j8g4qAgCgI/oDwROGBID5cERUQCCCQEGSPgeyZJLMmM5mll6r6v+9UV0/PPj3TPdM90zfp6eqqu5771Tn3nnvuuZrKhC4UaP7m2aXhdnNf0zanaXZwmlL6VN3WJ9lWqAQRi5XSipVt5ylb+Wxle3HPwCekaXpQaVpQKbsZz5uU19OItHVKs7fatr4Vz7aovNx1pVX6R9rF94W6FDqOf2jjuO2q7qsnTdJN43ArHDhUM7z7gxYLla5VRmliR6+GftGFwvhhWWFl2RtszXxL6cZqzfCvsXPy3yj/0YMtQy8kfVN2IU/6NmNwNW+qvrIovLfhM1ow+DkV6lgKTjVd2RaYFpCmgZFpIAc/yQwszyKy8S3loVyPYSrd+6aWnfWCVlD2XGu29c+qr9/RnsxqpEreSab26Dez4bzPzreyvCfotnGirdlLUCPP6NdqgBrYVrsWCj6veX1/Cvlzfzfhp4/uGiBF2j4ekwBsuHzFFDtknqV0dY6ytX3B4tBB6dTUSH3JmW1l4vOi7vM8pnL135Tc8sSetEVbLxVPp17ppfqdt2qqL8rxNe1eoYLBcyDijkHP6SMiUjurkPgr4lBAiAsd17rerrLzfmfnFjxQ/r17nk98gSOfY9oDsOG846uUP+sKW9MvBPkKRp6Eo1CiJePI921DvzNUOeHXk6rvaxuFWiSkyLQFYN1lKxZpyvwGBNSpkK4Y16VtU4bQkSKanXSa3mR79Lt8nqKfFt7xAFQ/6RXSrtdqrzp9qd7WfoPSrKMFdBpl0zgNrojGjFrT9b0qJ+/n3tKptxRcf1NDulAkbQDY+JUTFloe4yZQ+sRxxeziQRLHi5bVrHm8t4Vycn9ceduvW+NJPhpxUx6AjVecMtUKmTcoK3w2OB7YHaqc8rUeja5kmTGiWdd3KZ//utKfPPYQyEVemZIhZbvSrj7F11gTuNbWtesxm81KSeqlaqUEbvyD7jW011VWzlfLbn/kjVSsbkoCsOHCE5bYhnE/GN78VCRaWtWJOLS5/GLeFc4v/laqieWUAmDD5V8qwCLAzcoMXwKuh7qlVPXSCnddKwsU2qCl17tZ8/kvLL394b93fT56v1Kmh2vPOf5I3Z/1CJStUzK4SxIgnHVvG5LlrpbK4mtnVP+yI0klDTrbUQegXV2tN+5Y821bN76LWtO0KROSSoEIN1Tqfd3jPb3kZ0+8k9TiBsh8VAFYd+WKiVq7/Qhs5o7OcL0Beiphj6MA5PJem/Jnryy749GHEpZ9nBmNGgDrVq44WguHfgORWy5rtnFWPBM9ERQAGENBZefk/qKsZOFlWnU1DGpHNowKABsuXX4edKb3AniwKAYRMuxvZHs9WppLe9h2K3tVuGjaiok33VUXfTwCFyO6joXmavWXLL8R4HsQlzRnRxiVd8Apetz/7aS9ZqsjvB11rzde/5WFI0mWzhokudSN556bledv+iW0K6dlMJdkYg81e9MEP9B2WwUFJ1Xc+vBLQ80mnnQjAsCdXz4+15OX/SdU7CiH47msP56qZuKOGAU0u0PlFJ5Zdtuv/jfZZSZdBNeuPCXPm+39CxpyVKe4HRHcJ5t2Yzd/W8vSOtqeaLzmnC8lu5FJRQLBp5mBp7Fl8YiM2E12VyY4fxFSmoV15PPL7njkoQTnHs0uaRyw7vyT8nUr9AzGfBHwsUWZkFYUwIZm1dH6YP3V58ASKTkhKQCkJYumh5+CimVJp44vqcw2OdQZz7myu/ixsVM60P5g/TfPPTkZ5EgKABt2hB5QHt8xneBLRtUzeY4IBQBCOxg0VNOex+qvOefYRJeZcADWX3zy95Vun5UZ8yW6q0Y7P9uv9jb/rrH6awnVEyYUgA0rT/4K1nW/PdqkypSfYAq44tiyC6y2PX+uu/HKiYkqgVknJNReunwpNuI+h8xS3/NAQlo8TjMJY7nYsla3HHHo0hnnVQ/bnCshHHDH5aeUA3yPZcA3DkBpgL94fYtz39twTyJaO2wA0p7PG2h/GGbfkxJRodTMAyok0SLxTxI+rvcDfjsFpSYZWCvZF6Ypo7X5vPpvX3TpcCs6bAA21rz2LWUYx4/ZSQcxYeHDdVITP2jantBPpAsFhLhmeWkQ5F1pqPtJ7ZWnHDic6g5rDFh36Rc+pdnmc3grhg3k4TQiaWkBBi2/QGl5+cp3EPTpPh/9syS4OHYBge1kG1z7L2U11sPNJZwcSC8nuLiEZMf6Ruqt7HXhJUsPqjz76iHtQR7yhKHmos/n6Mp+ED5ZEt0jCSHRsDMRjqQpzZ+t9IJiZUyfDQBid6j4D4ygZdiFRDJwSYhs9Y3rld3epuyWphQGIMDnsi5b7WNsqfkpWnLBUMgxZAB6besHWKmZOaaVzRC72tQZSps8XWXNXgAmpVEpi0kgZHKiuBMAbXhhGmkYsJD0qtD0dcoCILX6HfCdSdmf4gH117Z9/JXG6y98suSH9z8db22HBMD6K754iGoPXRFvYekXnxvIAAaAQ+keFd65VYU3f6Ssup0AIMAh3HA4rSIn1ZUxYZLSi8uUbx6HU2QtLnsZTt4jkbaznlZ7632NN1+7sOS6W+LyXxg3ALnO27Aj+IAyXLkxEg1NUBnSt51E6zdXkbKSIBrNBAADa1cp88N3MSEJK80TN/mieclFhIvqAJ5n+hzl2/cA6tjwoU/KNAp8EQPtU+ztH9+KWl8UT83jpmDDzvDVePMXxFNISsT1QMzhwwnFoDgMfInbjXAypYO4JDDBYgIcIYpFXPO/+HoeRusANo35EsjksukFu64NR1tsM3zBnp9974HCr373ta4P+/4VFwB3XXHSBBWwr+s7uxR7gr6VYGhKLylXelnloAFoBzuUuReO68kEuwDDzdTJerh/uR1oDAXNaqq7B7rhg7HDjm/qgCEuABp7AtUqOytvUBxkwKJHIgI6l9wrK1f5P/kplXX0iUrPyibrwocdL+iKVKQrEKymerV7ywZEMyR6l6gJqzrGmBEx7NQltj4JK2RkMiKdcdKAuXXTovq8+gtR6L2DKXjQAKy/8rR5qqODGadPINAwedBLSpQOfR5cf6hwQ50yG+tUeHc91Cp+B6Agnk1FM8df4TBEIkDXCu4XwEkJEMVyP0mt7gr7rr+SVGRys8WQRQuFbqi9u/qRisuq9w5U2KABqELhH4GbcKCSXoFMheMrGWMBS81Nytq1TVk7tyn4z4sCkJMKOb+DQDSg4ST4QjjQSBhlN85ErsU5GNUnkaWpuIjCPPlyAOw4jQk/uuUfV2apFhltsawJxq6d30DNbhiodoMCYOMlJ+E0oSDkV/rhrwsBMLtsX/+est5+XVnvrwUAAaABOj+qhollTgQglNJafqFS2RDp8boJZvp2ADyITzMALyiPLaBLrdPrB0UxZ/G1O/6r5vk/3j3p6M/X99eAQQHQ0tR1cRO5v1JH7RkmI36/srmkxpmnxk8flSEeyA1lvAhuRcIyEDyBDmXM2U95Dv6U8k6Y6OgJnaeD/IvDP2p3KnP7JhV85klmOsh0aRUtz7fmFXLBb/ZX6wEB2HDhsgUYKp/Qd0/1l30KPqPolAEzv1E/F1g9quqCwv3ujGADhBo4n1ZSqgzOrEUf2DNeZ4qYK+EQFoaWUMHsaRqj2GN78bI31l62+6brflT0zZvR0N7DgADELPAaya339OPvLgCkYTJjcjXkzVeVPWEjxoNxDE2Qng5LrYYGZdfvcsaSfbLhdCUv3mz8t3bV5Nt7W76GVtzQV0v6BWDDytOr4LH0jL4Sj9v74KJ2bY0Kc0JDA00EcsVBBXJd9I7Eh2cqXEWS8YE8jPweA194MdHOlfZf7rxZ+9zXAr21qF8AWlrgSuzr5Ug9E2IpQDGKcSA/FtU2URDFRhrgmuNQAe0YA11ss7mKpOyK3ds6yMR+GfvIve4TgPYpWPM1g+f0PUZysxin3xxLUrXDJb6hBPYNlvIcixcXhC43HEqGKZiGQxNM5Kz/vH0FavfL3moIKvYeGosDy/GktPenmbtCAcEL/pCTxfWhsMU/Km0J5LGkhukODdAF9o0H1j3w48XdH/F3nxwQqpfz3feyt4Tj+h6BB+DI7DdeHSAJB8IK8KgvC0LZPZYDX8yODqU11p2PZq7u3tReASjn7YbN47tHzvwGBQg+E5OHWfOVsWCR8k2djdU+iGEu4w0mCGBtFdxZo6wdm5X5PL3WMdMxHKCmsup3nLGxuvrrM6q7buXsFYB2OHxuRD8whqkyjKbBLEvzYiWkEHrAomJwQndCMYg8I3pAvRXLpLtzcNjnGA8iRiEtgh1FOTn10Ccrat6jofcxoKVOj8bIXHSjALgVxIqM3wwveBdUMpCp2BszuA/jIkd3eOPwPv5y73QrLu1/ol38HwgovbnxlO7N6cEBd1192izV0p5+BqfdW5as3+RgWM4zP3pfWdu3qDBnwrwXV8DAnMt8wYAAuTNpvPl0pkz5KwxR9FDwxK2PP55ddeqpWAR3Qg8AekLWcr7RmdAPBTiOw+Yk29wNZkhaOXysnxTdHiENvIJz3MjZ8PgI0t7cPKuRc4vfu23uKYI7oH6J+412sxuP3yBsXCoYNz5pRSASgC4I8WzMBgxRoFqxd2z5bGwTu3DA5rOPLQ3a9uFResTGzFx3o0AESGIx0+3RYH5GlvCcdWQCbyyDL0IQcHxr+9a+ARj0eDhLiWNlfTCUHoNxyPFoAcPlNCGXy8HiaSvyoBEsxoHjJ6DNwcDU+sfunld2+mUfsN1dOCBM0Y/KiN9BwIGz4Dy47CibAKPUIkjQniOZfnNBeqsNapjWZqW2bURUdMxYD/KOop3Y6qA3tRyJ5vYCQN2zNAPAAZBA7gcjBH2f/ZXnkKOVf/I06AHjXA+GKArv3I4NPB+rwJaPUSB7ZyhcdIC6puJjbHcw2/cegardy+pFOWBt9cpKtatmdirWOdXqJAapXr9wQQPKaM0bJePgqoolOBOcQMvOGQ+8rytNqC8NBQ9yb0YpZzQ1LB3TgoCci5/hBsxauZuOG5vCb/xTtWyAJKFBATetDzbQzL+pSdm765w14Wi68cEF7baWfWruvTdn0sUXt0UBiKNTxyYAATq7I6SwvAgpB70bvF1pXkwexFYt2vO9XxAPPmw68ucAvDAcgHtaOwQdKgBnYWun1dbauR8kTmzbYRgh4AN7S5SB3XmsE8vjxISfRLwsvbdqdO9iY6URCOh62+Z9UZE3owCEUnTJ6NYsCaW7DIV+jQlA2N9pWXCxFt1OOUCZ5HYwv9dkMzsQJrNWbqNEgDUzf9sQp0OSowQeOSFEkpRBEDKwDIJzTAa0mf+x11oPhuehiQ4AYXxqNFiBBSJKxlTDoVFCH9stjbIf2IQBgB/WK+rjD5TpwVgkHGFbLlDdtru3sUHdP3WqMmbMwMAZ1s8N9dhPXINYSECxSxC5+jw3bTzfOIiI6T3T5ipjYpXka8PM38am+THLAdFKG+vCqmU3OgJk5J/6Kn0WGgzWMMYCgcUlr0BIABiu24FtmXA4OXGq0rGtUsSwiLtu7eY9gEufNQ873yYiTb4y90DkUm1C7iQAJemkgDi/EZ3puQ4MKxpj7v7KO2maMqDOCWOTktWEzUrNuxEnjjElskurIFw+OIN1FgBqIXPhkMRIOrSanR0KK7OpUQV3bIHtnke4DV2i6RDHtGoRPR6/5QORiG89C7Pcufspo6QCY0a/CtfuUNZeuL7j2AzOjuQTTeOmHeCbHJMkx7f8y81XxrxPYG/xJGVgm2cI9bOaasGxCUBBeTpQOP46QgTDOmYaE8oYULPshWO2uexzjPms7RthGr5XBWYvVJ7iCpV/2ETVDmWyWb9ThT982/EFQ4ogrnf+J7Dfd6LKPvAQDI0tFWrcqYIvPyfA0AAWASzjxhngvkzc/OrZueB8qEf5ROXfbzHsWwOySb3jDw/D+eUuGauO6fUoGHBYtj2B5BMAQq81V8YzcRI0PaIDgfhv0xUGwBZ88RmlZs9XnhlzlHfGXOWpnKI82FyuOvCcIcIhtew82fEWXPsq9gDvgMjsECeSHiiehxq4AYlueOnWQ6+YJJMb7qoLrnlJmTu2Kpvg42Qpnn3GQ63MqKYDu7NVJwDB7icPSi0xqpUeZuHgPnZrWIVe+RvA1qpsiF/fjH2UBm7omzw9IvEwSyZYWRTEdhDLZIE3XoAbjRqlIw5Bm3XwkXhItjqUwJwhfFEIryysqARrtqjA6y8qG+7gbOydkKxFVA8l//RJA7d0xfbq1REVvqZNGbNjwGifRDghgBh65w1lYSbcUTVD6XmFypg0FasSuQAhvHzCK5aJZTK7BROOjeuUiVkpIWm37FWhrRDj9JQ/pCCwdlQ3wbAK12xyJhv0Oc0xH9U5xPVQsT2kOo1WItLC1Np3bKgQESwccKy3PNqx4D7gPCZEnQbOZu1tVlDCw4klFM4CwA645q1TNpTMdOUmejmqXAL4DRFuRty8Da3rMLPFiokN7kq3HPRBKOeB8AAchnHA+aSdwv5t1WG1l2p7vnJKScgXapAH4+oPqEBrZnIejO9wQUbnBHI56vcEtPjDGSnt/kwAlSqE4QYCjasrBPZ4DKQ56Kst/ezhng5fW5Fhk9hC7fFFDjaZIMBqR2QQ6LRf/HDyYQSRvCTno9olXssXJ8duf5HPeKR3LBXwUhvhYK7Ha9q51rh8EYkqBAKhT8evkThkhbzsM57klPkTJwWwHp6r2x2BvC5vf5yZZKJnKDBUCtghEwBUWu5QM8iky1BgOBTA6Cdbt40xuAY8HKpk0o4oBXTd9kAfMaJlpmZhnG+4s+DUrOHYqRXpHDllymN7AcAxhEAN7jJkYkGdnmyZRGtjXjCNy1wy8cBNLntJQBzxmO8QpjMdKeUk1rjxiDNmfpgOszj+i+4HQVSu9TI4PqNjCpW7kT/u7YixgZTA+vA3luqkbMmkM5FGlZB4YEDZ3EUXKbszRppdkQYRLYDHNrzhyHWataKX6qIhelGJWBfbOALB3oMVBte4kzo/PNfycNATj1gAUK1GrL0SpAg6rF4EXACRCZMoMTgl+ByEiBm+loO0sFqxd8Nmj0csIK1eWIR0cEVLZ5NYTiNg9eLyCGBI6V4CbwNsrJsJhTfPI2agnRztAZ06S8GSt15S5qh/AH74XXZeAEmRxn9IA9DNY2T5QlYgmMYtiVSdnA2rGdkrzsHSWpXq+M97Kvj0b5W9azv0fDB3B0fUcGqSduixWAOeq7zlE9TeB3+irD04mRwh79wrZJMRAdH22//GjrUNWP1ocwAKc3lt6izlX3S48sFSpvXPjylz439wxkejylp+lqSzAJ6O//m5gDjrS5cooxCnM9HMvnvgS4CPhUOpeUxD29+eVLmnXSJ1D2OlpeP3sIjB+rC8LDCM4AuVczb8fEP/aLa2qo5HfoYXIJVPU+/e4F5+o/3k6HZ2ruWBRr6ZBpsiAvp4YXvJIgVvUYSBI+XkyvquLK1RcRw7sMNP3iEwhJvxOYkBzqLl5IMTgZtl5cDoYDYIhO2DH/xbgCt5UATCgEHPBRcksCJ5cw1ZJ2eEjpB7TSwsr4XeW6NM1IN2hNw/7JkIq2pwscAHEbMvAJum/FYjOCaMT2lrSC7nhaVNsKISRgkwlgCX1bHvWC+HrWBRqQrDK394C0BPgwVyTzYkbYNYQyrb0Ds8puGrl40x4BBp3SqOoSASOV6STUeylNatlxBFNhbJ2M0dC6LVBCDMpAgYAyAyps9VNq4t2glGOlnGe+ReAKIGcBK3MoyT8RnGnQakCNLaHW0qtGYVAIr88ZunrWdD5Bs4kDoIYFrgyGJyj2cyntuzRwU3rVMeLPP5YSNoTKgS0zELBrSqYrJSSK9z+yYMVc0P/60sgFMAiDqke8AwqN1T5puEEytqI40C0cZqIBa74bFHUwFg2TcyewGslCcrk3tHPnovZsxFBPNF7SNgDwm5pU3wsCwCEKJYhTBxAMezcTCNDa5HYwfZGCXZaMp8d7XSYO5vLVqivPssBCcuVO3vrFG+uQuUZ+a+Kox0YVji0CWczB45EUr3AInhLSlt0XGuK/zNai3p3p7B1d/lZ73HxoZpnKaJfRncNAMC6TTTgkiWycmA6GWeEYRTRALMzl7hGMByEZ4fzpa5j5iqCOxZEcsbmH9ZmDSJSMckRscYleNIlm+Ca1oc98GMiwB3i+m9FWlwV4Y9IIEva4/zKmnGzqisSYP6D6mKxF4MFnrkAXlK27/2N17EWG0tXGdsU9lHfkb2jxAUDghBLhIvNlAOiyx2b+K5xCFpGRcqFJbNOORcfEaVDh/xw4eYkFgNtarj3TfEMMKDCY/nmOXKwJhQh6ht++efVYiTHor1sRCELNiVWFDUSCqRKBvGQrv6bQMBEFF+9h4PzzmuwiQj+NarKvDqs8qTW6C8OJDQg5kzuZZsJu/OfnoAsPfcHRT28QyApNgOPvM7McvnGDbvyOOwFbRdBTYAeBgKKIrtKGj7yCddbvNFxNg55M2rFQBiSP1RutR9wHrGAiL2mgmF40S+3esuGeImwQBxyHEaNywZhcWYxU4RL1gaXPMmPrBM5IqdYjaMY6kWMmEhTdFrYexn8jw5ObcY7FvqLH8SX42RzFFEsKetfN99WyAf8G76PB+rkMMMR7IeySjLwmxSoycEBhmHYdwE5uaIPqfz+JeKgK7Buct4VChbLXtU6wtPq9xjT1JezIpNiD8du9h6cDIRqd3z6pqz82uAOHxZMAYNffwhdskFlQ+blsyP3hV9ow39pdS/t2zT8R5Xq7KytrLqgjq4nvhIlnvSsTFundmBWFmw9+4VJS+3PGpcYYB+T7Amimq/8s3iLLME+jqsZIDjcPwlIRZIUMlw4cR8/03s3diCmXGzysE+Yi9A0WOsHJvOrUv370HFQSLU0caMmVsGZFmOfqi59BZ5N7pnm66/xRVJbuFm1l84oKay3rYplzlDS9sAAGKMR7CovXCCyM1GxThprHWPcxoR9HeipOZSHTu6DfEo2sgluwdOEgBoLuVZjbVyMrqX3I8gJjiSFQg0zqDdfqDKhx/e5xuR9gF9xHZwRcqfhcFtBIDFN969ue6qM+qxOQeLjmkaOMEABwxii6O+bZMqOP0ipZ9+IbhhO/y5bBNffBomFb7JU1XwP++odujeuAPOmcH20rnIjqHjuT9hRaJSeS64GqDO7yG4nViZv4OmAL2MYUXJLinHzCoCQF7o+QVrcKjcMofCvXQII6VyoJjjeinWcK2mOtX6j6dEjaGysEwGfZqcStnWovZiXCcK5g3vY1aL8SE4v40JQBDbI2Hb4ohl6uiYHwLdZFiYAbe//A9sYp8khgM4hNlJS8zDnYbG9WQskdkQmchQ0jl0BBeF0QJ90nBpUDbHk7tR2vQIKA/Le3wp7L27UZ/1sqxnh8mhI29DjzRpeIMcHmotu7B8LWsvIpgXmidrDTwkLBN+79Cet9MnuOMs4WqmCm/+GG3CSkR+ITofejxMTCwskwlAwRFtOIiUwKU0EIVWJjbz4LiQimIiiHQgSOE1gft4uStOxxiTimMlwODJ53AySUBiAsFPl8BxKYBJh0MWjvZSocg6bm8AZFkELwGIWXh4B+oI4wOxjBlD+OOQAsueZlupeostlmbzou4n3z5Re2/tH6N2Z7yZxkHWtwVI6D2uu0ZWJrAAHmkVm86exTf/u6Dj+DDa7shziYVrinmKEDpuYXIAVrMjs2w+osECx4/RwJuM43Axm2DHLSfwgpm4wXkAjwFOHJYjLxXy43eXuG6adPtG27DKpC05Zn3pBdfMZe2jHFAvq3gRYgqeA0GlWLqkWxulvhB97mCeHaow2eBvGdCjyQSJtDHSUPa5PI80Vp7HdDonJMyH4pN5EMSRPBxs4VmfNIukZUROYqIRuydwfiM24rAslsP4YySwWWi7BkW/nluARW0nRF/X0rO+Bi2ouVoa7z5N2290JgHCUyxh1SIdz/287rVwlG6Nk7iIT5B0f87fFJs98sB9uYd0TM8yuwTWAx9yPg+V2LgeKDAP1kHqGnlZBpNuoHxT4jnaD5d0MFHrCUCpnz/72d4HyClR+0wl0poCYIGYZGlwxmmVT+wdgEZp5d/kTRZ2mdatzVQ+FSkABthaUKrM7PzeAVh0wLEv4yhSrHqnEALpYpfWxxSBIhopxgZRP0ZzP9HO6JbOfd7fdzRtzAXr5KaJud3lcqDn0cgxdWIaaSsu+C3Bfe5+R25Hv3jf/eBShgux6d2IfaV3nyf5G2NoTsUafHmqMUttcUtzW+n+Vg3fvvA+eG66sOd4Jhol+RdCKwzCSUyOGeipHmMoGx6qeEwqDTyxq96pR48WRKrnep3HTy2M+G4f8ZuDey8+XJNk4Aw5MvajtbPoB5mAoKdjS04I3HL4zaMbCELOimlsyjxjAi2sZcbL+jMeVTa9rbhIGjyXshCXm6Vo3o9xJfevWNAHSv7RPTvML6YgXjItJ0YcM/LsOgzyIeikzo7nLZTN+kvCXtJ3yy5ZPztQhSaclvmTULna95BDn/nckYectGDBgmB0Fhwt2Ot/EpW9MPp7xC+c3tRLyh1j0LIKpbNjMMi36cUKS2EW9HLWzq2ybipGmuxkt2d4SS+nMCZ1XK7hBo1Mqauj/g5KZg3LcQb3XvDMELaPHRThsPQPbSMOfQVqcJsW3vKRUjzXjR0NZbLGPScTpji/odczN29wdHXCnZEX88ELY8CCRkz0YefHslUYZUucGAQxTwTqKnlqEveA0DOrABCTEQuKc64L80Abqxl5UC+I7J18kJbLWgRrPvazwNGm2C3mYi8KW4U22S1N4n7OotPzltGyOXbryQmVT7UHNbW1rmHZK++tfxiahdN7ALCkMvhc4y6tCbRx9goKiUb4D+jnX3KcMqbNUb7Z8wRQqL10uoXFeXqrb3vsPvhT3qks+PhzwOPWESdzY+tk9gmnKy8cUJI7taz6q4KOU9nr3gUHbVe+eccp/7IvKg/N5ckNI0CQyLwmUGRdGSsnD/1UmZuwbAmFMpfk9DkLVd7xJ0tUE+Bqve8mmE2BC7oqE+ocsW6cu+I82QfS8vQTSq1/1/E1GMOVpbYEOcozFixWninYO3LYMbI3xZE+rAN0gXjZ9sI+Ua39l7LegZJCj3BtJwMYXBQqzyePUtmLj4g4VOdzl1btWHZ8VwX+/YYy4elVuHCPmbpLtyR9g5zk0B5w5qzC8nBZYf61b6/fcPNzr64+JTfbv6cHALWL7wvVf+/yR1TNlq+yHdKYJNWte7YUXXrlZOU/fgWsVuA+F53ZtvplgIwm6fVKK4U7XbjV9QGY2f/nfGVu26Tan/qVs5dWxAxqC1FELuKprBIgsg3Z2E4ZaMbmH1oVQ8QGafL0v0gHQHDDj4H9HzlLjpUNRe1vvgIPqViFoM9oiE0bR3LRgSVNorwz5yk/rKTpZJwc0gAn1eHMnICh+ZYTSDTwIIh32RzFmwQ0OyIa8AN5c7+I5+AjYHz6OVFis36h9e+Bc8GAAv88U2Zi33GJyv/E4SpUWqmC02ap4At/EceW3BDvOfKzij6rsw/Cc0iEwNuvq9CGdWI4y+PEsnDfg1mnp3KqagNtLXh8tUAzOWrW5djROiXxAn3jm1ilyg445KE7jznxxw/+7s//eWnNW7+969HfX0CG3iNY+aUPOErXHo+SewNGmDShMiDi6CGAeyQsiEBr+2Y5IMbavkmZNVuwjXE7jlGAKMTZGrLph2KPnAsN1ThmhBEpxaCJJS0TeRAwvM81SHIqu70Vhp44DgHg4hKcbI8kt4F1DJfW5B5AaGENV5bX2Fk8tgHiTUc+tLiRdV+8ICI+OW4TJbW87qCR+43LvjoaoOXYluCXlRpwWBMAsaWtKFtO09yAl2yj7ITTcvGiyLACe1Soe4Ru0TNhojJKy6U47iU2uX7MeiMtvzl8sHdjkz3fCWwPFT+IfdUnWT3L8oRORSFVNOn7LOb8FSf8ae6MqSfrhtHRgwMyQsVV1W/Vn79sjfJqB3FzzkgFDeMmfTrELvZEtP3reRBwgwo/+5SzJMVB9gYAZMtGFYJYycEGdC0nW3mwgy0EQAogwKl0bDrXp8xQBsZqreAIPM8t7wiIc+6xhZizwP0ULZ5x5ofNMRTAY2M3m4z7MN4K4whVC+UqgNQRz4gD0GqlSM+xI8aBrW+/przgsD7kp8+ai8G/R5lb1jsTARKLYCTh++xsPIMrEI5F/TgnJEQraHCujicecMatVFwzm3Vvy5jTyslRWRD9WQccogKvPIv3TMwmlA9HxpLbB7dtUB1/e0o2ujvjXiRGEe3c7rnfwRDx6EaYpznjy167XMpLyh8wBzIEe1LVL0oWLdrslvHNC77816tuvefzfdYGg9pfWIG2g/qevblZJeCb3IsiDWLGKJkg3uPpRNzatF725zocBeXgzadfZQuGBm2/uQ+3IaggWuXoJxCc4pVHLxg4jiuInWRh7MOV+BBzWlGZMiC+bYBXlt1kC+Ug6o56cQbumTkH9atAWhg6wMm5TQsYTIy8M+crEy9HePUqvCgRgULgSZvICbsFDhUAfL0UnB4TLQMclaZh5O4KkyKZjbtJ2F7kY2LsZ8Kw1sOXaGKVAB1TJeHGHCoE38KLBkMLEa1MizGwOy42AUIT4ll24UWHCW4BSf4GQyD3s6bPCWhFpTd2L+2Oq1f+o08ABisn/NqzdcsPoUIoFlWC8PHuWSTwNwjNQwHlMEEsSXN/hJwYJOun6DSWT5DBaIAHzlh0ncFAVYhwHHQ+VCv0s8JTzLm3gidakpMRoDrGROJhIFY8Ojn0/5dAQrl6EWblmI2LCgj52gAOy9BxcA0trKlCEcuZ/nPD0wgoIX5FJAJknKXSo4Is2bGNbiCgEV180ZAjk0bghuLfhu3GbJ8vk8n6kAYciiDQGFfyhvdHAR6tdAB6KZlx+BKMRJByUG5Jyf8rX3Ls9t6K7BOAlVff1lp/9dk/V617r496juoth4TcI5XxRsMUXudbDx2fBbMkfgT8QrmuBTm2dzH3sGFIK4fhaAXGRTAcbX7+D8qGrR7BGQQHMKDq8FRNVwGOAzHeQoExifu5ZKejTr45C0S3F9gIrrxrK6y7MBuHqCyYcYYyqT6pmoXxG8oDx3Rmscy/lzIIaASOdem2QwKGBKCzcx37V8CI+NRjciIE9RBVUvTaIDv0mBd1os31ABrFPsQd0mQf9wVlTJ+tjIJ8YcRSp5ClOv71rIhwvtwjAkLW3+drU/MOvDm2WbHXfQKQkazcvLv05sZv4JIr6ckLpBrGWTT85IcnkHNXGD89gMZakPBi/IlvvtHgkhomJd55i2QPCM2iqFOzMfslBiwogj1QHnvyCzDGnCWDdJsesESp1lezkBDl6FOwNxd7QXiikgm9nImxo7ZoKQgLwMPdBkdjnOD4DjxYBalvdMUckveGPykN+dKFh+j4KOIxDhUdXm9VAW10Lw5YBOj4gnLDEvWgmtgegm40gsgFx1M7hdvZGLN3vPZPqJ3eBGmQtmqmMuBdIWvmPjIZ67tSvRU+xHvsH3BoffIMTCgq7ylb8ElUrveA3us7VFTfs9P2+x8m+05uxZE/xU0QYwZ+CCioR6j0lXIpbtgochcCDuILFtwQNeAg1P5jx7mGMR1nhOKbj3HZqTwOC2odsavD+JCqCQ1jTBmMM05/gY8RRzgVleJIyzGeAA4zVw33WIYMAVAnjg9FhIp0I734QZB6x37LTYcLgxNrEFM0UWJ7JTA+RRc/LJ90gaKZQxOpMbk3V2e4WUnELl4Aily8dEiA/zSu3SYz4jDG0NRVWtz7ElnpkUxYRtID6l5cvtdTPOGW/orqlwMyoXfOgTeG33/zbDQM07YIUfvLcRjPTMxASWj9sKOVvs8BziB722aInjD6E2VTdzZlOt7oucp32KdlbBeEIyBz9UsAHpwKTZktAKV48gJotmyjRFIZJ6JjeB/6vjA616rZPIiaQheHc+WMabNRB4g4pDO4yoJZunQ2wGEiTxq/GpXTHJFK8UYXDC6p+NJYAICJcVgQIMGp7QSWqE0w6QiDo/rnH6hMDBvMta84+kextkZbsZ2A4PQdcbwyqFQH4CxMKqgeIuBMeNCiNy8/lNAdmAnL0l0HRHK781xxLwteymzQSwAq+BwB8IEeGhiDtviwOwuO+AzGB32HAQFYdPl3NtZfcdr9GGusdF7BvjMb7hML+3HpByUEXZgXYzkPOiWI8RHvWxgjaTlZcJ22jzjs0cFxZCUEqyE6dr8ZjF9apkLUG8KPSvgDWHzLBAa1ArcwcPavjVUVLxS7FlYPOOHpFO8uWiItkD7CPYKtEHljvGayblCLhNa9g7cSejgmAeezoAZi+X4oqXW4UZNlNwKeLwzSi7NKgFNo58HEg8uGACDVQAQq9wH7Zi2AF62Zyn/MSaJct7D0R/FsYMyqQ8z7oGymv5rgRx9gKwHOE8aSHDs4DE7HJUsvhgfW4qXKhNLZBO3g9RE6Rky6cDIoPX2J3jDSNKfi0R+Jv0DbBOwlE3argkm3DVTAgABkBnZu4Q+0lsbzMMvD/B4FRF/vgbKP7zm9g9J9GVcEsveFjgsi1MY0nntzVQRoXgDQjwF2iJ5EOTPcuRkTgNlKg1jkRKMNAAwjvYVxUPStx2K+BwC2MYPMhf4uhN1xCkplHkjoBAcUIi7dt4wA4riLYKXyGbPu0PtrcWzrs+hciH0CCVwoDD2jB6qfbCyn6eA2OoBlUUxShIJD0r+fXFNcQ4wzyIwVqiTEkJUPP14O0VMedYLqwNhN7XFA5l34CYC6THmgL+wA+DrwAshh1nSehBAG1/PA0tqPcZ6FVQ8d6icbKiKqYTh8ydr/k1DYYxwNzimm/kzEF0f+sB+TENhuvHjahCk3Fe2/Pzqp/zAoAJb/8L4d9Tdcfqfa/NG14m20/zyH/hQDaK5KBP/4MMYwIB46zzvvAChrcbj0flQWQwShwzvefVMFXnwa7jPgVg7g0gBKhRlwYPsmZW3ALBWuzFQOQCbExhc7AQvzdDgZAEewAAR90nSIMHBJelJAvoF6rHpg1cRu4xIcx0wYwE+sghYDi/oAewBpxXsVXfISnBIwJtyGMgG0AMrUAAA6v7SwnBdE3XggNjmzUY7xIUUx+pxjOrYDglI4uAlnSHuhguE6s3fhQcoHRbzmnY+qw4sqjC94kGHzqmeg++SK0EYHvJikcSkwtOpvKgwOHdq6SfmQlhLAd+znRR3EtMH33kJ7YNCAcn2fOBQvSwveCahFWP1k4I95Mu+s7C175h92p5BogD8uJQeIBoOSO6sL7A/XYgCiVUrkQaccMOvOCBGisH91DvQx/tEnTpUN5Vy24nGm1JdZ2GxuUR2C3/QkQAWzuDXDpCTMtVRwIRGvMXXkLFmDSOeMUDgtAEIRLlyqCEphiFCK6jDXUrm5Hb2mQbR6ps6RiQ7XUC2AmFsyo4H1pfoH5XpnzRdlsCi+wbE9UNu4ahbZIIVGyb4SNg6gDhNMaItdB6CWlMpMmOvgOgAl4yfq7QAYznjpypcHJ9q0aGGb5AVA4UQSXyZYDHHNl5Mycj5ZPgRdwhDHoqRHErqakyVGnktMqyKiMpGB+fGDNqiyCV8uu7z64cFkH9NFA0dvvPa8s+Aw59coKUKEgdMMOYZwDJQD3ZfMEDlmIzAw6Bf7OnAamTlTFNJejvEZOCt2x37OHecvogmBSHwudfHjtp5iQ2aKmHHKrDoSlx0s9n5IzPvseOn82IxxzdmoqIVwDQ4na7ui/I3UqVt0+SnjSMTlrJ51Yx7YOir2gKgbOZzChEL0ex7EkbLx3T2w0zlBYh6cCWM2Lb5xcM+mRoFt5IfbS6HPpHhMSmA9QEd98dI3iy+8ejFeOtZowMCqxRXqLj3pJc20YPuTpIa4tZHqR9ognc6q8jc+/JKaR+5JNPnjdFQUWW5mkaRuernNTo2kiaZHflGA4abIKhdEfMaE8kdy6PzDuJG85CbjxP7ujNl5xTj4SB0i8ZmH29Zo8sgFo/RZtpsr84vkJXRyr/mc+bjP3fgJ+nbr7fXa+pkXHVly6HGrBptz3CgycnMvs9o7sDhpQy0TadRgS4snHmnnElz6AH/ce/LtZkaixsR1b3f/jsaJTRy5jj6LTYSbcr8XrhMbTa4ZVyLHPOn+O+ZRl0s3Xi95yCP3eZdEMT+YLuangIG/3fvuQ/c7Jm7CLtE3nGBVTLw3HvCx+MFQt0s1S2579G0tv/hGERkCjC6Pk/ODtEsm/ZJT6+HlOtT2DjXdsGoLIBSV1OjLTrwu3mziBiALKJlxyA8xzlo77kARL3XHQ3xgz8AEzNhn/8tKFh/nWuUOuuVDAqB28cUhvbziHIAQDlFGig0Ouk2ZiEmnAPqc3c4PJ1FTZjxRfObKp4ZS7JAAyIJKvn/fO1ASf0tmYEMpOZMmvSkABbjMAaDz0xYsuXiojRkyAFlg2R2P3q5XzfijTPEznHCofZCG6aAmx9q7XjE57Ft2yhmDWfHoq5HDAiB1Pcak0nOhf9osBWSkcV90HkP3I7IXy5qqoOi7BctOfmU4jUvInKn+O5cdouprXsTMGK/FsDA9nLZk0o4EBbhMCeWJ9qllfy8587Jlg1U491W1hKCl7Pt3v6Zyci6iTZ4MTPsqLXM/vSkA5qflYSdi1bT1xtQDThsu+EiMhACQGZXd/shDdl7hzTIrzowHSZKxEyJSl5u+tPKJTd45+59YtHTpgJYugyFAQkSwWxAW27WGS5Y/iVWBL/RcGXBjZb7TjgK0b0SAyVvIOPzTnylatuK5RLUhYRxQKohJSXDRorPsnPxVjn7QqXiiKpvJZ6QpgP6jNKP9IyyG1AGHrEwk+NiahAKQGU66uLrNqMg5UXk9cMZCBuuC0P1mrExICwqwy2CVQ1M2vWzSNaVfPOcXia53QkVwbOVaHn+wPPjCH1/CMQMw1gPOk1ZSbKmZ64RRgOZgNLDAhnjjk0uri0+7+IaE5R2TUcI5oJt3/qnn16nyKZ+GlcR6516GA7q0Se1v9BPFLu0GaVtYNfPWZIGPdEg6X6qtXllp1O/8BzZVL3DEMYskGJNeNNuXCfFSgODjBx4f7LIJPy7/2g3cF560MCIoaP6fe8uCL//1GSzZLRJnRyNSatJoNnYzplU2FxKKsbnq+C9cX3LUCTclu7FJE8GxFS848+J6vWruMaqw9IWMeiaWMilyTY5H8NHLQk6+qU3f56KRAB9bPyIAZEEl192yp3Tx9ON1j449JZmQUhTghAN7X7SS0g5j5uxTSy+6+v6Rqt+oCMOG6ku/qxobbsDhiM5Gmh7m7CPV/PFeDjkfNsnTBcqMudu0/Q9dUXbUZ7GxeOTCiHHA2CaVVv/8e9i3ezqsaByXUKBDJowUBUBs0psfvvjYbagKi162pk1ZPNLgY4tHhQOyYIb6W66ZpzavfxKTE/i1gCHDqNbGqdPY/0sAOoTW/NhXdvTye4un7Hu5tngxzVxGPIx6l+/81a9yvXs23m+//cYZcjgL30oqrjMh8RTg/mfgT6N3h9IJu62Dl64sP/akRxNf0OBzHHUAulWtv/qss3Eu751wN1UoTlOkZilTPbea6fdNUcvALbR8sbF5HW5JXlCTq84uOfuKLc7D0fubUj3ccPcPquyaTf+t6nYd6yzfoXopVcPR66ghlyyWLHAzAu8KcBgUVFUzvlt87tdvhS0f2OHoh5TrXpp0Nd35f1fCQfkPcUIRnJ3grZVaplxVR7/3+quB6PYAPDgy4nFn9r77v6AqJl9aduLpH/SXbKSfpWyv1t145UR9x9bb4YT7DBm4kKAZdjgAPiLy1u1VnM2m8vLq4LHgv8quufVXAyQelcduVUel8MEUWn//Tceomm0/U7U18+RcOLgXy+w76YVyxJ67ogGvYiq3IKwOXnqfZ+b0bxftnxjr5V5KHfatlAcgW2g//rixZ++W88z1H1bbrXsmK56JoUG0yIx52DRI8wyAvAjj4zkj8IltW9Nm/8YuKf1OxWdO/SjVG5cWAHSJuPXHV2Xn1jVfbu1uuBbgKxGRzA3SIprdXmDstGqW27xBfLONbJv7zST4DQMCcc5eXPq0fsDB1xd/4by3+CQdQlr2VO3zz+cZ6167CK5sr1Jb1k/pPCmJPvxI9rRs1iDwAuBRzIo/QEww6Jm/oCisTZv1hD77wNuLDl26ZhCZpFSUtO4p+957vQ2N676kmhq+oULBhc7RBdQusKPwle5gZBtc+cq2cMhBv4x0bunPbjYmTv2FXVT801TQ57GmQwlpDcDYBjc8ePsS+8N/X6S1t52Kpb1sOQ+OCEzncSIBKLN/XHCpEkeR2SUTVulV039plc19vHz58hh/wbHUSJ/rMQNAl+SNq/9eqPYEztTWrT0Np5kvVa3Nupw0zpZSp4hTKiOs0U2SGt8EmphFYUmW1+ByOOAPahQcUjNnv832pKm/NsumPlSxYEHKTyziIeiYA2Bs42vvrq7UW1q/qPbuPgUiGqc6mx45NIZrovLhBAadLasF3UmB38P2AEtQMV989wi8h2e0QKZYJafmNcWrYdgqK+9NraLiD3p2/h+Kz7sqbSYVPZo5wA1SZ1yEhr88XGA1NB9lbF1/HA6sPk4FAvsonLrJAb0488au/y5BRDfJMwwSCVdjrgRbNxDC+TrFqpwOipUKHD+2QS8sXmVNnfOSlV/0l/Ljl9cw5VgPw6BuepOm9vXXK7Na6xbbgfaD7eaGg+3a2sWqva3cbKqD13140uehifDIj22lwA7AgyNkhWtSTPYXyMXEEz0BDfLKoTa45n3q6XDykae4vEaVlL6HY7beDRdPeNUqqlhVPn/+jv6yHavPxi0Ae+vQ5od+Vhqq3zEHx2TN0czQHC3QPt0KhXlKdQWOcSjHdzn2Tvh7cDPJTEiJIyL1dhzp0IzxZg2uazR/7g4cZFNje42thj/nA72k7H2I1N29lT8e72UAGGevc1Vm25Qpvlxfqy8YyPEbftPwBT2BxkCgbcbRR4N1ZkI8FPj/hHs9z8JporMAAAAASUVORK5CYII=;" vertex="1" parent="266">
                    <mxGeometry y="54.75" width="26.5" height="26.5" as="geometry"/>
                </mxCell>
                <mxCell id="263" value="" style="group" vertex="1" connectable="0" parent="266">
                    <mxGeometry x="70.00384615384621" y="33" width="80" height="70" as="geometry"/>
                </mxCell>
                <mxCell id="256" value="" style="rounded=1;whiteSpace=wrap;html=1;fillColor=#d5e8d4;strokeColor=none;" vertex="1" parent="263">
                    <mxGeometry x="35" width="45" height="70" as="geometry"/>
                </mxCell>
                <mxCell id="265" value="&lt;span style=&quot;font-size: 10px;&quot;&gt;ML成果物の参照&lt;/span&gt;" style="text;html=1;align=center;verticalAlign=middle;whiteSpace=wrap;rounded=0;" vertex="1" parent="263">
                    <mxGeometry x="-46.803846153846166" y="33" width="80" height="30" as="geometry"/>
                </mxCell>
                <mxCell id="257" value="" style="shape=actor;whiteSpace=wrap;html=1;" vertex="1" parent="263">
                    <mxGeometry x="44.99615384615379" y="18" width="25" height="34" as="geometry"/>
                </mxCell>
                <mxCell id="264" style="edgeStyle=none;html=1;endArrow=oval;endFill=1;" edge="1" parent="266">
                    <mxGeometry relative="1" as="geometry">
                        <mxPoint x="102" y="68" as="sourcePoint"/>
                        <mxPoint x="29.5" y="68" as="targetPoint"/>
                    </mxGeometry>
                </mxCell>
            </root>
        </mxGraphModel>
    </diagram>
</mxfile>
